<svg version="1.1" viewBox="0.0 0.0 738.0 371.0" fill="none" stroke="none" stroke-linecap="square" stroke-miterlimit="10" width="738" height="371" xmlns:xlink="http://www.w3.org/1999/xlink" xmlns="http://www.w3.org/2000/svg"><path fill="#e5e9ed" d="M0 0L738.0 0L738.0 371.0L0 371.0L0 0Z" fill-rule="nonzero"/><path stroke="#b3b6b9" stroke-width="1.0" stroke-linecap="butt" d="M204.5 86.5L204.5 300.5" fill-rule="nonzero"/><path stroke="#b3b6b9" stroke-width="1.0" stroke-linecap="butt" d="M333.5 86.5L333.5 300.5" fill-rule="nonzero"/><path stroke="#b3b6b9" stroke-width="1.0" stroke-linecap="butt" d="M461.5 86.5L461.5 300.5" fill-rule="nonzero"/><path stroke="#b3b6b9" stroke-width="1.0" stroke-linecap="butt" d="M590.5 86.5L590.5 300.5" fill-rule="nonzero"/><path stroke="#b3b6b9" stroke-width="1.0" stroke-linecap="butt" d="M719.5 86.5L719.5 300.5" fill-rule="nonzero"/><path stroke="#1c1c1d" stroke-width="1.0" stroke-linecap="butt" d="M88.5 300.5L719.5 300.5" fill-rule="nonzero"/><path stroke="#b3b6b9" stroke-width="1.0" stroke-linecap="butt" d="M88.5 246.5L719.5 246.5" fill-rule="nonzero"/><path stroke="#b3b6b9" stroke-width="1.0" stroke-linecap="butt" d="M88.5 193.5L719.5 193.5" fill-rule="nonzero"/><path stroke="#b3b6b9" stroke-width="1.0" stroke-linecap="butt" d="M88.5 139.5L719.5 139.5" fill-rule="nonzero"/><path stroke="#b3b6b9" stroke-width="1.0" stroke-linecap="butt" d="M88.5 86.5L719.5 86.5" fill-rule="nonzero"/><clipPath id="id_0"><path d="M88.55 86.28333L719.45 86.28333L719.45 300.45L88.55 300.45L88.55 86.28333Z" clip-rule="nonzero"/></clipPath><path fill="#4285f4" fill-opacity="0.3019608" clip-path="url(#id_0)" d="M88.55 300.12875C88.55 300.12875 97.133675 299.91458 101.42551 299.75397C105.71735 299.59332 118.59286 298.85266 127.17653 298.57605C135.76021 298.2994 161.51123 303.81122 178.67857 297.6123C195.84592 291.41336 247.34796 266.88235 255.93163 243.2675C264.51532 219.65265 281.68265 119.69334 281.68265 119.69334L281.68265 300.45C281.68265 300.45 264.51532 300.45 255.93163 300.45C247.34796 300.45 195.84592 300.45 178.67857 300.45C161.51123 300.45 135.76021 300.45 127.17653 300.45C118.59286 300.45 105.71735 300.45 101.42551 300.45C97.133675 300.45 88.55 300.45 88.55 300.45Z" fill-rule="nonzero"/><path fill="#ea4335" fill-opacity="0.3019608" clip-path="url(#id_0)" d="M178.67857 296.4879C178.67857 296.4879 247.34796 296.97278 255.93163 294.50687C264.51532 292.041 273.09897 290.10754 281.68265 280.3719C290.26633 270.63623 298.85 252.38744 307.4337 236.09291C316.01733 219.7984 333.1847 182.6048 333.1847 182.6048L333.1847 300.45C333.1847 300.45 316.01733 300.45 307.4337 300.45C298.85 300.45 290.26633 300.45 281.68265 300.45C273.09897 300.45 264.51532 300.45 255.93163 300.45C247.34796 300.45 178.67857 300.45 178.67857 300.45Z" fill-rule="nonzero"/><path fill="#6aa84f" fill-opacity="0.3019608" clip-path="url(#id_0)" d="M88.55 299.91458C88.55 299.91458 97.133675 299.69595 101.42551 299.59332C105.71735 299.49072 118.59286 299.1293 127.17653 299.00436C135.76021 298.87946 161.51123 298.8497 178.67857 298.68314C195.84592 298.51654 247.34796 298.07037 255.93163 297.66583C264.51532 297.2613 273.09897 296.2202 281.68265 295.5777C290.26633 294.9352 298.85 294.14102 307.4337 293.81082C316.01733 293.48065 324.601 293.67697 333.1847 293.59668C341.76837 293.51636 453.3561 293.00772 487.69083 291.99042C522.0255 290.9731 556.3602 291.61563 590.6949 286.9575C625.0296 282.29938 719.45 258.3127 719.45 258.3127L719.45 300.45C719.45 300.45 625.0296 300.45 590.6949 300.45C556.3602 300.45 522.0255 300.45 487.69083 300.45C453.3561 300.45 341.76837 300.45 333.1847 300.45C324.601 300.45 316.01733 300.45 307.4337 300.45C298.85 300.45 290.26633 300.45 281.68265 300.45C273.09897 300.45 264.51532 300.45 255.93163 300.45C247.34796 300.45 195.84592 300.45 178.67857 300.45C161.51123 300.45 135.76021 300.45 127.17653 300.45C118.59286 300.45 105.71735 300.45 101.42551 300.45C97.133675 300.45 88.55 300.45 88.55 300.45Z" fill-rule="nonzero"/><path stroke="#a2c3fa" stroke-width="1.0" stroke-linecap="butt" clip-path="url(#id_0)" d="M88.55 300.1609L88.55 300.09662" fill-rule="nonzero"/><path stroke="#a2c3fa" stroke-width="1.0" stroke-linecap="butt" clip-path="url(#id_0)" d="M82.55 300.1609L94.55 300.1609" fill-rule="nonzero"/><path stroke="#a2c3fa" stroke-width="1.0" stroke-linecap="butt" clip-path="url(#id_0)" d="M82.55 300.09662L94.55 300.09662" fill-rule="nonzero"/><path stroke="#a2c3fa" stroke-width="1.0" stroke-linecap="butt" clip-path="url(#id_0)" d="M101.42551 299.82355L101.42551 299.68436" fill-rule="nonzero"/><path stroke="#a2c3fa" stroke-width="1.0" stroke-linecap="butt" clip-path="url(#id_0)" d="M95.42551 299.82355L107.42551 299.82355" fill-rule="nonzero"/><path stroke="#a2c3fa" stroke-width="1.0" stroke-linecap="butt" clip-path="url(#id_0)" d="M95.42551 299.68436L107.42551 299.68436" fill-rule="nonzero"/><path stroke="#a2c3fa" stroke-width="1.0" stroke-linecap="butt" clip-path="url(#id_0)" d="M127.17653 298.76343L127.17653 298.38864" fill-rule="nonzero"/><path stroke="#a2c3fa" stroke-width="1.0" stroke-linecap="butt" clip-path="url(#id_0)" d="M121.17653 298.76343L133.17653 298.76343" fill-rule="nonzero"/><path stroke="#a2c3fa" stroke-width="1.0" stroke-linecap="butt" clip-path="url(#id_0)" d="M121.17653 298.38864L133.17653 298.38864" fill-rule="nonzero"/><path stroke="#a2c3fa" stroke-width="1.0" stroke-linecap="butt" clip-path="url(#id_0)" d="M178.67857 297.89606L178.67857 297.32852" fill-rule="nonzero"/><path stroke="#a2c3fa" stroke-width="1.0" stroke-linecap="butt" clip-path="url(#id_0)" d="M172.67857 297.89606L184.67857 297.89606" fill-rule="nonzero"/><path stroke="#a2c3fa" stroke-width="1.0" stroke-linecap="butt" clip-path="url(#id_0)" d="M172.67857 297.32852L184.67857 297.32852" fill-rule="nonzero"/><path stroke="#a2c3fa" stroke-width="1.0" stroke-linecap="butt" clip-path="url(#id_0)" d="M255.93163 248.98575L255.93163 237.54926" fill-rule="nonzero"/><path stroke="#a2c3fa" stroke-width="1.0" stroke-linecap="butt" clip-path="url(#id_0)" d="M249.93163 248.98575L261.93164 248.98575" fill-rule="nonzero"/><path stroke="#a2c3fa" stroke-width="1.0" stroke-linecap="butt" clip-path="url(#id_0)" d="M249.93163 237.54926L261.93164 237.54926" fill-rule="nonzero"/><path stroke="#a2c3fa" stroke-width="1.0" stroke-linecap="butt" clip-path="url(#id_0)" d="M281.68265 137.769L281.68265 101.61767" fill-rule="nonzero"/><path stroke="#a2c3fa" stroke-width="1.0" stroke-linecap="butt" clip-path="url(#id_0)" d="M275.68265 137.769L287.68265 137.769" fill-rule="nonzero"/><path stroke="#a2c3fa" stroke-width="1.0" stroke-linecap="butt" clip-path="url(#id_0)" d="M275.68265 101.61767L287.68265 101.61767" fill-rule="nonzero"/><path stroke="#f49c94" stroke-width="1.0" stroke-linecap="butt" clip-path="url(#id_0)" d="M178.67857 296.88412L178.67857 296.0917" fill-rule="nonzero"/><path stroke="#f49c94" stroke-width="1.0" stroke-linecap="butt" clip-path="url(#id_0)" d="M172.67857 296.88412L184.67857 296.88412" fill-rule="nonzero"/><path stroke="#f49c94" stroke-width="1.0" stroke-linecap="butt" clip-path="url(#id_0)" d="M172.67857 296.0917L184.67857 296.0917" fill-rule="nonzero"/><path stroke="#f49c94" stroke-width="1.0" stroke-linecap="butt" clip-path="url(#id_0)" d="M255.93163 295.1012L255.93163 293.91257" fill-rule="nonzero"/><path stroke="#f49c94" stroke-width="1.0" stroke-linecap="butt" clip-path="url(#id_0)" d="M249.93163 295.1012L261.93164 295.1012" fill-rule="nonzero"/><path stroke="#f49c94" stroke-width="1.0" stroke-linecap="butt" clip-path="url(#id_0)" d="M249.93163 293.91257L261.93164 293.91257" fill-rule="nonzero"/><path stroke="#f49c94" stroke-width="1.0" stroke-linecap="butt" clip-path="url(#id_0)" d="M281.68265 282.3797L281.68265 278.36407" fill-rule="nonzero"/><path stroke="#f49c94" stroke-width="1.0" stroke-linecap="butt" clip-path="url(#id_0)" d="M275.68265 282.3797L287.68265 282.3797" fill-rule="nonzero"/><path stroke="#f49c94" stroke-width="1.0" stroke-linecap="butt" clip-path="url(#id_0)" d="M275.68265 278.36407L287.68265 278.36407" fill-rule="nonzero"/><path stroke="#f49c94" stroke-width="1.0" stroke-linecap="butt" clip-path="url(#id_0)" d="M307.4337 242.52863L307.4337 229.65721" fill-rule="nonzero"/><path stroke="#f49c94" stroke-width="1.0" stroke-linecap="butt" clip-path="url(#id_0)" d="M301.4337 242.52863L313.4337 242.52863" fill-rule="nonzero"/><path stroke="#f49c94" stroke-width="1.0" stroke-linecap="butt" clip-path="url(#id_0)" d="M301.4337 229.65721L313.4337 229.65721" fill-rule="nonzero"/><path stroke="#f49c94" stroke-width="1.0" stroke-linecap="butt" clip-path="url(#id_0)" d="M333.1847 194.38931L333.1847 170.82027" fill-rule="nonzero"/><path stroke="#f49c94" stroke-width="1.0" stroke-linecap="butt" clip-path="url(#id_0)" d="M327.1847 194.38931L339.1847 194.38931" fill-rule="nonzero"/><path stroke="#f49c94" stroke-width="1.0" stroke-linecap="butt" clip-path="url(#id_0)" d="M327.1847 170.82027L339.1847 170.82027" fill-rule="nonzero"/><path stroke="#4285f4" stroke-width="2.0" stroke-linecap="butt" clip-path="url(#id_0)" d="M88.55 300.12875C88.55 300.12875 97.133675 299.91458 101.42551 299.75397C105.71735 299.59332 118.59286 298.85266 127.17653 298.57605C135.76021 298.2994 161.51123 303.81122 178.67857 297.6123C195.84592 291.41336 247.34796 266.88235 255.93163 243.2675C264.51532 219.65265 281.68265 119.69334 281.68265 119.69334" fill-rule="nonzero"/><path stroke="#ea4335" stroke-width="2.0" stroke-linecap="butt" clip-path="url(#id_0)" d="M178.67857 296.4879C178.67857 296.4879 247.34796 296.97278 255.93163 294.50687C264.51532 292.041 273.09897 290.10754 281.68265 280.3719C290.26633 270.63623 298.85 252.38744 307.4337 236.09291C316.01733 219.7984 333.1847 182.6048 333.1847 182.6048" fill-rule="nonzero"/><path stroke="#6aa84f" stroke-width="2.0" stroke-linecap="butt" clip-path="url(#id_0)" d="M88.55 299.91458C88.55 299.91458 97.133675 299.69595 101.42551 299.59332C105.71735 299.49072 118.59286 299.1293 127.17653 299.00436C135.76021 298.87946 161.51123 298.8497 178.67857 298.68314C195.84592 298.51654 247.34796 298.07037 255.93163 297.66583C264.51532 297.2613 273.09897 296.2202 281.68265 295.5777C290.26633 294.9352 298.85 294.14102 307.4337 293.81082C316.01733 293.48065 324.601 293.67697 333.1847 293.59668C341.76837 293.51636 453.3561 293.00772 487.69083 291.99042C522.0255 290.9731 556.3602 291.61563 590.6949 286.9575C625.0296 282.29938 719.45 258.3127 719.45 258.3127" fill-rule="nonzero"/><path fill="#4285f4" clip-path="url(#id_0)" d="M88.55 295.62875L93.05 300.12875L88.55 304.62875L84.05 300.12875Z" fill-rule="nonzero"/><path fill="#4285f4" clip-path="url(#id_0)" d="M101.42551 295.25397L105.92551 299.75397L101.42551 304.25397L96.92551 299.75397Z" fill-rule="nonzero"/><path fill="#4285f4" clip-path="url(#id_0)" d="M127.17653 294.07605L131.67653 298.57605L127.17653 303.07605L122.67653 298.57605Z" fill-rule="nonzero"/><path fill="#4285f4" clip-path="url(#id_0)" d="M178.67857 293.1123L183.17857 297.6123L178.67857 302.1123L174.17857 297.6123Z" fill-rule="nonzero"/><path fill="#4285f4" clip-path="url(#id_0)" d="M255.93163 238.7675L260.43164 243.2675L255.93163 247.7675L251.43163 243.2675Z" fill-rule="nonzero"/><path fill="#4285f4" clip-path="url(#id_0)" d="M281.68265 115.19334L286.18265 119.69334L281.68265 124.19334L277.18265 119.69334Z" fill-rule="nonzero"/><path fill="#ea4335" clip-path="url(#id_0)" d="M178.67857 291.9879L183.17857 296.4879L178.67857 300.9879L174.17857 296.4879Z" fill-rule="nonzero"/><path fill="#ea4335" clip-path="url(#id_0)" d="M255.93163 290.00687L260.43164 294.50687L255.93163 299.00687L251.43163 294.50687Z" fill-rule="nonzero"/><path fill="#ea4335" clip-path="url(#id_0)" d="M281.68265 275.8719L286.18265 280.3719L281.68265 284.8719L277.18265 280.3719Z" fill-rule="nonzero"/><path fill="#ea4335" clip-path="url(#id_0)" d="M307.4337 231.59291L311.9337 236.09291L307.4337 240.59291L302.9337 236.09291Z" fill-rule="nonzero"/><path fill="#ea4335" clip-path="url(#id_0)" d="M333.1847 178.1048L337.6847 182.6048L333.1847 187.1048L328.6847 182.6048Z" fill-rule="nonzero"/><path fill="#6aa84f" clip-path="url(#id_0)" d="M88.55 295.41458L93.05 299.91458L88.55 304.41458L84.05 299.91458Z" fill-rule="nonzero"/><path fill="#6aa84f" clip-path="url(#id_0)" d="M101.42551 295.09332L105.92551 299.59332L101.42551 304.09332L96.92551 299.59332Z" fill-rule="nonzero"/><path fill="#6aa84f" clip-path="url(#id_0)" d="M127.17653 294.50436L131.67653 299.00436L127.17653 303.50436L122.67653 299.00436Z" fill-rule="nonzero"/><path fill="#6aa84f" clip-path="url(#id_0)" d="M178.67857 294.18314L183.17857 298.68314L178.67857 303.18314L174.17857 298.68314Z" fill-rule="nonzero"/><path fill="#6aa84f" clip-path="url(#id_0)" d="M255.93163 293.16583L260.43164 297.66583L255.93163 302.16583L251.43163 297.66583Z" fill-rule="nonzero"/><path fill="#6aa84f" clip-path="url(#id_0)" d="M281.68265 291.0777L286.18265 295.5777L281.68265 300.0777L277.18265 295.5777Z" fill-rule="nonzero"/><path fill="#6aa84f" clip-path="url(#id_0)" d="M307.4337 289.31082L311.9337 293.81082L307.4337 298.31082L302.9337 293.81082Z" fill-rule="nonzero"/><path fill="#6aa84f" clip-path="url(#id_0)" d="M333.1847 289.09668L337.6847 293.59668L333.1847 298.09668L328.6847 293.59668Z" fill-rule="nonzero"/><path fill="#6aa84f" clip-path="url(#id_0)" d="M487.69083 287.49042L492.19083 291.99042L487.69083 296.49042L483.19083 291.99042Z" fill-rule="nonzero"/><path fill="#6aa84f" clip-path="url(#id_0)" d="M590.6949 282.4575L595.1949 286.9575L590.6949 291.4575L586.1949 286.9575Z" fill-rule="nonzero"/><path fill="#6aa84f" clip-path="url(#id_0)" d="M719.45 253.81271L723.95 258.3127L719.45 262.8127L714.95 258.3127Z" fill-rule="nonzero"/><path fill="#000000" d="M338.39062 340.85626L341.04688 340.85626L341.04688 344.10626L343.82812 340.85626L347.35938 340.85626L344.23438 344.10626L347.5 349.45L344.23438 349.45L342.42188 345.91876L341.04688 347.35626L341.04688 349.45L338.39062 349.45L338.39062 340.85626ZM356.85938 347.0125L359.125 347.27814Q358.9375 347.98126 358.51562 348.5125Q358.09375 349.02814 357.42188 349.3094Q356.75 349.59064 355.73438 349.59064Q354.73438 349.59064 354.07812 349.41876Q353.42188 349.23126 352.9375 348.825Q352.46875 348.40314 352.20312 347.85626Q351.9375 347.29376 351.9375 346.3719Q351.9375 345.40314 352.26562 344.7625Q352.5 344.29376 352.90625 343.9344Q353.32812 343.5594 353.78125 343.3719Q354.46875 343.09064 355.5625 343.09064Q357.07812 343.09064 357.875 343.6375Q358.6875 344.16876 359.0 345.23126L356.76562 345.52814Q356.65625 345.1219 356.375 344.91876Q356.09375 344.71564 355.625 344.71564Q355.04688 344.71564 354.67188 345.15314Q354.3125 345.575 354.3125 346.4344Q354.3125 347.2 354.67188 347.60626Q355.03125 347.9969 355.59375 347.9969Q356.0625 347.9969 356.375 347.7625Q356.70312 347.5125 356.85938 347.0125ZM359.92188 346.35626Q359.92188 344.9344 360.875 344.0125Q361.84375 343.09064 363.48438 343.09064Q365.35938 343.09064 366.3125 344.16876Q367.07812 345.04376 367.07812 346.325Q367.07812 347.7625 366.125 348.6844Q365.17188 349.59064 363.48438 349.59064Q361.98438 349.59064 361.0625 348.825Q359.92188 347.8875 359.92188 346.35626ZM362.3125 346.35626Q362.3125 347.1844 362.65625 347.59064Q363.0 347.98126 363.5 347.98126Q364.01562 347.98126 364.34375 347.59064Q364.6875 347.2 364.6875 346.325Q364.6875 345.5125 364.34375 345.1219Q364.01562 344.73126 363.51562 344.73126Q363.0 344.73126 362.65625 345.1375Q362.3125 345.52814 362.3125 346.35626ZM368.21875 343.23126L370.4375 343.23126L370.4375 344.2469Q370.9375 343.6219 371.4375 343.35626Q371.95312 343.09064 372.6875 343.09064Q373.6875 343.09064 374.23438 343.6844Q374.79688 344.2625 374.79688 345.4969L374.79688 349.45L372.40625 349.45L372.40625 346.02814Q372.40625 345.4344 372.1875 345.2Q371.96875 344.95 371.57812 344.95Q371.14062 344.95 370.875 345.27814Q370.60938 345.60626 370.60938 346.46564L370.60938 349.45L368.21875 349.45L368.21875 343.23126ZM380.85938 347.0125L383.125 347.27814Q382.9375 347.98126 382.51562 348.5125Q382.09375 349.02814 381.42188 349.3094Q380.75 349.59064 379.73438 349.59064Q378.73438 349.59064 378.07812 349.41876Q377.42188 349.23126 376.9375 348.825Q376.46875 348.40314 376.20312 347.85626Q375.9375 347.29376 375.9375 346.3719Q375.9375 345.40314 376.26562 344.7625Q376.5 344.29376 376.90625 343.9344Q377.32812 343.5594 377.78125 343.3719Q378.46875 343.09064 379.5625 343.09064Q381.07812 343.09064 381.875 343.6375Q382.6875 344.16876 383.0 345.23126L380.76562 345.52814Q380.65625 345.1219 380.375 344.91876Q380.09375 344.71564 379.625 344.71564Q379.04688 344.71564 378.67188 345.15314Q378.3125 345.575 378.3125 346.4344Q378.3125 347.2 378.67188 347.60626Q379.03125 347.9969 379.59375 347.9969Q380.0625 347.9969 380.375 347.7625Q380.70312 347.5125 380.85938 347.0125ZM390.78125 349.45L388.54688 349.45L388.54688 348.4344Q388.04688 349.0594 387.54688 349.325Q387.04688 349.59064 386.29688 349.59064Q385.3125 349.59064 384.75 349.0125Q384.20312 348.41876 384.20312 347.1844L384.20312 343.23126L386.59375 343.23126L386.59375 346.65314Q386.59375 347.23126 386.8125 347.48126Q387.03125 347.73126 387.42188 347.73126Q387.84375 347.73126 388.10938 347.40314Q388.39062 347.075 388.39062 346.21564L388.39062 343.23126L390.78125 343.23126L390.78125 349.45ZM392.25 343.23126L394.48438 343.23126L394.48438 344.2469Q394.79688 343.59064 395.14062 343.34064Q395.48438 343.09064 395.98438 343.09064Q396.51562 343.09064 397.14062 343.41876L396.40625 345.10626Q395.98438 344.9344 395.73438 344.9344Q395.26562 344.9344 395.01562 345.325Q394.64062 345.8719 394.64062 347.35626L394.64062 349.45L392.25 349.45L392.25 343.23126ZM397.25 343.23126L399.48438 343.23126L399.48438 344.2469Q399.79688 343.59064 400.14062 343.34064Q400.48438 343.09064 400.98438 343.09064Q401.51562 343.09064 402.14062 343.41876L401.40625 345.10626Q400.98438 344.9344 400.73438 344.9344Q400.26562 344.9344 400.01562 345.325Q399.64062 345.8719 399.64062 347.35626L399.64062 349.45L397.25 349.45L397.25 343.23126ZM409.125 346.9344L404.34375 346.9344Q404.40625 347.4969 404.65625 347.77814Q405.0 348.1844 405.5625 348.1844Q405.90625 348.1844 406.23438 348.0125Q406.42188 347.90314 406.64062 347.6219L409.0 347.84064Q408.45312 348.77814 407.6875 349.1844Q406.9375 349.59064 405.51562 349.59064Q404.26562 349.59064 403.5625 349.2469Q402.85938 348.8875 402.39062 348.1375Q401.92188 347.3719 401.92188 346.35626Q401.92188 344.8875 402.85938 343.9969Q403.79688 343.09064 405.4375 343.09064Q406.78125 343.09064 407.54688 343.4969Q408.32812 343.8875 408.71875 344.66876Q409.125 345.4344 409.125 346.65314L409.125 346.9344ZM406.70312 345.79376Q406.64062 345.09064 406.32812 344.79376Q406.03125 344.4969 405.53125 344.4969Q404.96875 344.4969 404.625 344.95Q404.40625 345.23126 404.35938 345.79376L406.70312 345.79376ZM410.21875 343.23126L412.4375 343.23126L412.4375 344.2469Q412.9375 343.6219 413.4375 343.35626Q413.95312 343.09064 414.6875 343.09064Q415.6875 343.09064 416.23438 343.6844Q416.79688 344.2625 416.79688 345.4969L416.79688 349.45L414.40625 349.45L414.40625 346.02814Q414.40625 345.4344 414.1875 345.2Q413.96875 344.95 413.57812 344.95Q413.14062 344.95 412.875 345.27814Q412.60938 345.60626 412.60938 346.46564L412.60938 349.45L410.21875 349.45L410.21875 343.23126ZM421.09375 340.85626L421.09375 343.23126L422.40625 343.23126L422.40625 344.96564L421.09375 344.96564L421.09375 347.16876Q421.09375 347.575 421.17188 347.7Q421.29688 347.90314 421.57812 347.90314Q421.84375 347.90314 422.32812 347.7469L422.5 349.40314Q421.60938 349.59064 420.84375 349.59064Q419.95312 349.59064 419.53125 349.3719Q419.10938 349.1375 418.90625 348.66876Q418.70312 348.2 418.70312 347.15314L418.70312 344.96564L417.82812 344.96564L417.82812 343.23126L418.70312 343.23126L418.70312 342.09064L421.09375 340.85626ZM431.85938 347.0125L434.125 347.27814Q433.9375 347.98126 433.51562 348.5125Q433.09375 349.02814 432.42188 349.3094Q431.75 349.59064 430.73438 349.59064Q429.73438 349.59064 429.07812 349.41876Q428.42188 349.23126 427.9375 348.825Q427.46875 348.40314 427.20312 347.85626Q426.9375 347.29376 426.9375 346.3719Q426.9375 345.40314 427.26562 344.7625Q427.5 344.29376 427.90625 343.9344Q428.32812 343.5594 428.78125 343.3719Q429.46875 343.09064 430.5625 343.09064Q432.07812 343.09064 432.875 343.6375Q433.6875 344.16876 434.0 345.23126L431.76562 345.52814Q431.65625 345.1219 431.375 344.91876Q431.09375 344.71564 430.625 344.71564Q430.04688 344.71564 429.67188 345.15314Q429.3125 345.575 429.3125 346.4344Q429.3125 347.2 429.67188 347.60626Q430.03125 347.9969 430.59375 347.9969Q431.0625 347.9969 431.375 347.7625Q431.70312 347.5125 431.85938 347.0125ZM435.29688 340.85626L437.6875 340.85626L437.6875 349.45L435.29688 349.45L435.29688 340.85626ZM439.3125 340.85626L441.6875 340.85626L441.6875 342.48126L439.3125 342.48126L439.3125 340.85626ZM439.3125 343.23126L441.6875 343.23126L441.6875 349.45L439.3125 349.45L439.3125 343.23126ZM450.125 346.9344L445.34375 346.9344Q445.40625 347.4969 445.65625 347.77814Q446.0 348.1844 446.5625 348.1844Q446.90625 348.1844 447.23438 348.0125Q447.42188 347.90314 447.64062 347.6219L450.0 347.84064Q449.45312 348.77814 448.6875 349.1844Q447.9375 349.59064 446.51562 349.59064Q445.26562 349.59064 444.5625 349.2469Q443.85938 348.8875 443.39062 348.1375Q442.92188 347.3719 442.92188 346.35626Q442.92188 344.8875 443.85938 343.9969Q444.79688 343.09064 446.4375 343.09064Q447.78125 343.09064 448.54688 343.4969Q449.32812 343.8875 449.71875 344.66876Q450.125 345.4344 450.125 346.65314L450.125 346.9344ZM447.70312 345.79376Q447.64062 345.09064 447.32812 344.79376Q447.03125 344.4969 446.53125 344.4969Q445.96875 344.4969 445.625 344.95Q445.40625 345.23126 445.35938 345.79376L447.70312 345.79376ZM451.21875 343.23126L453.4375 343.23126L453.4375 344.2469Q453.9375 343.6219 454.4375 343.35626Q454.95312 343.09064 455.6875 343.09064Q456.6875 343.09064 457.23438 343.6844Q457.79688 344.2625 457.79688 345.4969L457.79688 349.45L455.40625 349.45L455.40625 346.02814Q455.40625 345.4344 455.1875 345.2Q454.96875 344.95 454.57812 344.95Q454.14062 344.95 453.875 345.27814Q453.60938 345.60626 453.60938 346.46564L453.60938 349.45L451.21875 349.45L451.21875 343.23126ZM462.09375 340.85626L462.09375 343.23126L463.40625 343.23126L463.40625 344.96564L462.09375 344.96564L462.09375 347.16876Q462.09375 347.575 462.17188 347.7Q462.29688 347.90314 462.57812 347.90314Q462.84375 347.90314 463.32812 347.7469L463.5 349.40314Q462.60938 349.59064 461.84375 349.59064Q460.95312 349.59064 460.53125 349.3719Q460.10938 349.1375 459.90625 348.66876Q459.70312 348.2 459.70312 347.15314L459.70312 344.96564L458.82812 344.96564L458.82812 343.23126L459.70312 343.23126L459.70312 342.09064L462.09375 340.85626ZM463.79688 347.73126L466.17188 347.4969Q466.3125 347.91876 466.57812 348.10626Q466.84375 348.29376 467.28125 348.29376Q467.76562 348.29376 468.03125 348.09064Q468.23438 347.9344 468.23438 347.7Q468.23438 347.45 467.95312 347.3094Q467.76562 347.2 466.9375 347.0594Q465.6875 346.84064 465.20312 346.65314Q464.71875 346.46564 464.39062 346.02814Q464.0625 345.59064 464.0625 345.02814Q464.0625 344.41876 464.42188 343.98126Q464.78125 343.52814 465.40625 343.3094Q466.03125 343.09064 467.09375 343.09064Q468.20312 343.09064 468.73438 343.2625Q469.26562 343.41876 469.60938 343.77814Q469.96875 344.1375 470.20312 344.7469L467.9375 344.96564Q467.85938 344.66876 467.65625 344.52814Q467.375 344.34064 466.96875 344.34064Q466.5625 344.34064 466.375 344.4969Q466.20312 344.6375 466.20312 344.84064Q466.20312 345.0594 466.4375 345.1844Q466.67188 345.29376 467.45312 345.3875Q468.64062 345.52814 469.21875 345.77814Q469.79688 346.0125 470.10938 346.46564Q470.42188 346.90314 470.42188 347.4344Q470.42188 347.96564 470.09375 348.48126Q469.76562 348.9969 469.0625 349.29376Q468.35938 349.59064 467.15625 349.59064Q465.45312 349.59064 464.71875 349.10626Q464.0 348.6219 463.79688 347.73126Z" fill-rule="nonzero"/><path fill="#000000" d="M20.956263 242.5698L20.956263 240.17917L29.550013 240.17917L29.550013 242.5698L20.956263 242.5698ZM25.346888 236.47604L25.096888 238.7573Q24.503138 238.61667 24.159388 238.3823Q23.815638 238.1323 23.565638 237.67917Q23.378138 237.35104 23.284388 236.77292Q23.190638 236.1948 23.190638 235.53854Q23.190638 234.46042 23.315638 233.8198Q23.425013 233.16354 23.800013 232.72604Q24.065638 232.42917 24.550013 232.2573Q25.034388 232.0698 25.471888 232.0698L28.221888 232.0698Q28.659388 232.0698 28.909388 232.02292Q29.159388 231.96042 29.550013 231.77292L29.550013 234.0073Q29.315638 234.14792 29.190638 234.1948Q29.050013 234.22604 28.784388 234.27292Q29.237513 234.74167 29.425013 235.1948Q29.690638 235.83542 29.690638 236.66354Q29.690638 237.78854 29.175013 238.36667Q28.659388 238.9448 27.909388 238.9448Q27.190638 238.9448 26.737513 238.52292Q26.284388 238.10104 26.050013 236.99167Q25.784388 235.64792 25.675013 235.2573Q25.565638 234.85104 25.393763 234.39792Q24.956263 234.39792 24.784388 234.58542Q24.596888 234.77292 24.596888 235.22604Q24.596888 235.80417 24.784388 236.10104Q24.940638 236.33542 25.346888 236.47604ZM26.596888 234.39792Q26.768763 234.89792 26.909388 235.42917Q27.096888 236.14792 27.284388 236.35104Q27.487513 236.55417 27.721888 236.55417Q28.003138 236.55417 28.190638 236.35104Q28.362513 236.14792 28.362513 235.77292Q28.362513 235.3823 28.175013 235.03854Q27.971888 234.6948 27.706263 234.55417Q27.425013 234.39792 26.971888 234.39792L26.596888 234.39792ZM20.956263 227.77292L23.331263 227.77292L23.331263 226.46042L25.065638 226.46042L25.065638 227.77292L27.268763 227.77292Q27.675013 227.77292 27.800013 227.6948Q28.003138 227.5698 28.003138 227.28854Q28.003138 227.02292 27.846888 226.53854L29.503138 226.36667Q29.690638 227.2573 29.690638 228.02292Q29.690638 228.91354 29.471888 229.33542Q29.237513 229.7573 28.768763 229.96042Q28.300013 230.16354 27.253138 230.16354L25.065638 230.16354L25.065638 231.03854L23.331263 231.03854L23.331263 230.16354L22.190638 230.16354L20.956263 227.77292ZM27.034388 218.74167L27.034388 223.52292Q27.596888 223.46042 27.878138 223.21042Q28.284388 222.86667 28.284388 222.30417Q28.284388 221.96042 28.112513 221.6323Q28.003138 221.4448 27.721888 221.22604L27.940638 218.86667Q28.878138 219.41354 29.284388 220.17917Q29.690638 220.92917 29.690638 222.35104Q29.690638 223.60104 29.346888 224.30417Q28.987513 225.0073 28.237513 225.47604Q27.471888 225.9448 26.456263 225.9448Q24.987513 225.9448 24.096888 225.0073Q23.190638 224.0698 23.190638 222.42917Q23.190638 221.08542 23.596888 220.3198Q23.987513 219.53854 24.768763 219.14792Q25.534388 218.74167 26.753138 218.74167L27.034388 218.74167ZM25.893763 221.16354Q25.190638 221.22604 24.893763 221.53854Q24.596888 221.83542 24.596888 222.33542Q24.596888 222.89792 25.050013 223.24167Q25.331263 223.46042 25.893763 223.5073L25.893763 221.16354ZM23.331263 217.64792L23.331263 215.42917L24.346888 215.42917Q23.721888 214.92917 23.456263 214.42917Q23.190638 213.91354 23.190638 213.17917Q23.190638 212.17917 23.784388 211.6323Q24.362513 211.0698 25.596888 211.0698L29.550013 211.0698L29.550013 213.46042L26.128138 213.46042Q25.534388 213.46042 25.300013 213.67917Q25.050013 213.89792 25.050013 214.28854Q25.050013 214.72604 25.378138 214.99167Q25.706263 215.2573 26.565638 215.2573L29.550013 215.2573L29.550013 217.64792L23.331263 217.64792ZM27.112513 205.0073L27.378138 202.74167Q28.081263 202.92917 28.612513 203.35104Q29.128138 203.77292 29.409388 204.4448Q29.690638 205.11667 29.690638 206.1323Q29.690638 207.1323 29.518763 207.78854Q29.331263 208.4448 28.925013 208.92917Q28.503138 209.39792 27.956263 209.66354Q27.393763 209.92917 26.471888 209.92917Q25.503138 209.92917 24.862513 209.60104Q24.393763 209.36667 24.034388 208.96042Q23.659388 208.53854 23.471888 208.08542Q23.190638 207.39792 23.190638 206.30417Q23.190638 204.78854 23.737513 203.99167Q24.268763 203.17917 25.331263 202.86667L25.628138 205.10104Q25.221888 205.21042 25.018763 205.49167Q24.815638 205.77292 24.815638 206.24167Q24.815638 206.8198 25.253138 207.1948Q25.675013 207.55417 26.534388 207.55417Q27.300013 207.55417 27.706263 207.1948Q28.096888 206.83542 28.096888 206.27292Q28.096888 205.80417 27.862513 205.49167Q27.612513 205.16354 27.112513 205.0073ZM23.331263 202.33542L23.331263 199.8198L27.471888 198.53854L23.331263 197.35104L23.331263 194.99167L29.971888 197.46042Q31.112513 197.8823 31.518763 198.3198Q32.08126 198.9448 32.08126 200.21042Q32.08126 200.72604 31.940638 201.80417L30.268763 201.99167Q30.440638 201.47604 30.440638 200.85104Q30.440638 200.42917 30.237513 200.16354Q30.050013 199.89792 29.550013 199.72604L23.331263 202.33542ZM20.956263 190.55417L20.956263 188.17917L22.581263 188.17917L22.581263 190.55417L20.956263 190.55417ZM23.331263 190.55417L23.331263 188.17917L29.550013 188.17917L29.550013 190.55417L23.331263 190.55417ZM23.331263 186.64792L23.331263 184.42917L24.346888 184.42917Q23.721888 183.92917 23.456263 183.42917Q23.190638 182.91354 23.190638 182.17917Q23.190638 181.17917 23.784388 180.6323Q24.362513 180.0698 25.596888 180.0698L29.550013 180.0698L29.550013 182.46042L26.128138 182.46042Q25.534388 182.46042 25.300013 182.67917Q25.050013 182.89792 25.050013 183.28854Q25.050013 183.72604 25.378138 183.99167Q25.706263 184.2573 26.565638 184.2573L29.550013 184.2573L29.550013 186.64792L23.331263 186.64792ZM23.331263 174.6323L23.331263 172.39792L24.237513 172.39792Q23.659388 171.91354 23.425013 171.42917Q23.190638 170.9448 23.190638 170.2573Q23.190638 169.5073 23.456263 169.0698Q23.706263 168.6323 24.237513 168.36667Q23.628138 167.80417 23.409388 167.35104Q23.190638 166.8823 23.190638 166.1948Q23.190638 165.1948 23.784388 164.6323Q24.378138 164.0698 25.643763 164.0698L29.550013 164.0698L29.550013 166.46042L26.003138 166.46042Q25.581263 166.46042 25.378138 166.61667Q25.050013 166.86667 25.050013 167.22604Q25.050013 167.64792 25.362513 167.91354Q25.659388 168.16354 26.331263 168.16354L29.550013 168.16354L29.550013 170.55417L26.128138 170.55417Q25.706263 170.55417 25.565638 170.60104Q25.331263 170.67917 25.190638 170.86667Q25.050013 171.05417 25.050013 171.30417Q25.050013 171.71042 25.362513 171.97604Q25.659388 172.24167 26.378138 172.24167L29.550013 172.24167L29.550013 174.6323L23.331263 174.6323ZM27.831263 163.0698L27.596888 160.6948Q28.018763 160.55417 28.206263 160.28854Q28.393763 160.02292 28.393763 159.58542Q28.393763 159.10104 28.190638 158.83542Q28.034388 158.6323 27.800013 158.6323Q27.550013 158.6323 27.409388 158.91354Q27.300013 159.10104 27.159388 159.92917Q26.940638 161.17917 26.753138 161.66354Q26.565638 162.14792 26.128138 162.47604Q25.690638 162.80417 25.128138 162.80417Q24.518763 162.80417 24.081263 162.4448Q23.628138 162.08542 23.409388 161.46042Q23.190638 160.83542 23.190638 159.77292Q23.190638 158.66354 23.362513 158.1323Q23.518763 157.60104 23.878138 157.2573Q24.237513 156.89792 24.846888 156.66354L25.065638 158.92917Q24.768763 159.0073 24.628138 159.21042Q24.440638 159.49167 24.440638 159.89792Q24.440638 160.30417 24.596888 160.49167Q24.737513 160.66354 24.940638 160.66354Q25.159388 160.66354 25.284388 160.42917Q25.393763 160.1948 25.487513 159.41354Q25.628138 158.22604 25.878138 157.64792Q26.112513 157.0698 26.565638 156.7573Q27.003138 156.4448 27.534388 156.4448Q28.065638 156.4448 28.581263 156.77292Q29.096888 157.10104 29.393763 157.80417Q29.690638 158.5073 29.690638 159.71042Q29.690638 161.41354 29.206263 162.14792Q28.721888 162.86667 27.831263 163.0698Z" fill-rule="nonzero"/><path fill="#000000" d="M75.05 300.1219Q75.05 297.66876 75.925 296.7Q76.8 295.71564 78.6125 295.71564Q79.47188 295.71564 80.03438 295.9344Q80.59688 296.1375 80.94063 296.48126Q81.3 296.825 81.50313 297.2Q81.70625 297.575 81.81563 298.09064Q82.06563 299.04376 82.06563 300.09064Q82.06563 302.4344 81.26875 303.5125Q80.4875 304.59064 78.55 304.59064Q77.45625 304.59064 76.78438 304.2469Q76.12813 303.90314 75.70625 303.23126Q75.39375 302.7625 75.22188 301.95Q75.05 301.1219 75.05 300.1219ZM77.40938 300.1219Q77.40938 301.7625 77.69063 302.3719Q77.9875 302.96564 78.53438 302.96564Q78.90938 302.96564 79.175 302.71564Q79.44063 302.45 79.56563 301.90314Q79.69063 301.35626 79.69063 300.1844Q79.69063 298.48126 79.39375 297.8875Q79.1125 297.29376 78.53438 297.29376Q77.94063 297.29376 77.675 297.90314Q77.40938 298.4969 77.40938 300.1219Z" fill-rule="nonzero"/><path fill="#000000" d="M56.45625 242.17397L56.45625 250.90834L54.034374 250.90834L54.034374 245.18959Q53.45625 245.62709 52.909374 245.90834Q52.3625 246.17397 51.534374 246.42397L51.534374 244.47084Q52.753124 244.08022 53.425 243.53334Q54.096874 242.98647 54.471874 242.17397L56.45625 242.17397ZM59.05 246.58022Q59.05 244.12709 59.925 243.15834Q60.8 242.17397 62.6125 242.17397Q63.471874 242.17397 64.03438 242.39272Q64.59688 242.59584 64.94063 242.93959Q65.3 243.28334 65.50313 243.65834Q65.70625 244.03334 65.81563 244.54897Q66.06563 245.50209 66.06563 246.54897Q66.06563 248.89272 65.26875 249.97084Q64.4875 251.04897 62.55 251.04897Q61.45625 251.04897 60.784374 250.70522Q60.128124 250.36147 59.70625 249.68959Q59.39375 249.22084 59.221874 248.40834Q59.05 247.58022 59.05 246.58022ZM61.409374 246.58022Q61.409374 248.22084 61.690624 248.83022Q61.9875 249.42397 62.534374 249.42397Q62.909374 249.42397 63.175 249.17397Q63.440624 248.90834 63.565624 248.36147Q63.690624 247.81459 63.690624 246.64272Q63.690624 244.93959 63.39375 244.34584Q63.1125 243.75209 62.534374 243.75209Q61.940624 243.75209 61.675 244.36147Q61.409374 244.95522 61.409374 246.58022ZM67.05 246.58022Q67.05 244.12709 67.925 243.15834Q68.8 242.17397 70.6125 242.17397Q71.47188 242.17397 72.03438 242.39272Q72.59688 242.59584 72.94063 242.93959Q73.3 243.28334 73.50313 243.65834Q73.70625 244.03334 73.81563 244.54897Q74.06563 245.50209 74.06563 246.54897Q74.06563 248.89272 73.26875 249.97084Q72.4875 251.04897 70.55 251.04897Q69.45625 251.04897 68.78438 250.70522Q68.12813 250.36147 67.70625 249.68959Q67.39375 249.22084 67.22188 248.40834Q67.05 247.58022 67.05 246.58022ZM69.40938 246.58022Q69.40938 248.22084 69.69063 248.83022Q69.9875 249.42397 70.53438 249.42397Q70.90938 249.42397 71.175 249.17397Q71.44063 248.90834 71.56563 248.36147Q71.69063 247.81459 71.69063 246.64272Q71.69063 244.93959 71.39375 244.34584Q71.1125 243.75209 70.53438 243.75209Q69.94063 243.75209 69.675 244.36147Q69.40938 244.95522 69.40938 246.58022ZM75.05 246.58022Q75.05 244.12709 75.925 243.15834Q76.8 242.17397 78.6125 242.17397Q79.47188 242.17397 80.03438 242.39272Q80.59688 242.59584 80.94063 242.93959Q81.3 243.28334 81.50313 243.65834Q81.70625 244.03334 81.81563 244.54897Q82.06563 245.50209 82.06563 246.54897Q82.06563 248.89272 81.26875 249.97084Q80.4875 251.04897 78.55 251.04897Q77.45625 251.04897 76.78438 250.70522Q76.12813 250.36147 75.70625 249.68959Q75.39375 249.22084 75.22188 248.40834Q75.05 247.58022 75.05 246.58022ZM77.40938 246.58022Q77.40938 248.22084 77.69063 248.83022Q77.9875 249.42397 78.53438 249.42397Q78.90938 249.42397 79.175 249.17397Q79.44063 248.90834 79.56563 248.36147Q79.69063 247.81459 79.69063 246.64272Q79.69063 244.93959 79.39375 244.34584Q79.1125 243.75209 78.53438 243.75209Q77.94063 243.75209 77.675 244.36147Q77.40938 244.95522 77.40938 246.58022Z" fill-rule="nonzero"/><path fill="#000000" d="M58.034374 197.36667L50.8625 197.36667Q50.9875 196.30417 51.6125 195.36667Q52.2375 194.42917 53.95625 193.16354Q55.003124 192.3823 55.3 191.97604Q55.596874 191.5698 55.596874 191.21042Q55.596874 190.8198 55.3 190.53854Q55.003124 190.2573 54.565624 190.2573Q54.1125 190.2573 53.815624 190.55417Q53.534374 190.83542 53.440624 191.5698L51.05 191.36667Q51.190624 190.36667 51.565624 189.80417Q51.940624 189.22604 52.6125 188.92917Q53.3 188.6323 54.503124 188.6323Q55.76875 188.6323 56.45625 188.92917Q57.159374 189.21042 57.565624 189.80417Q57.971874 190.39792 57.971874 191.1323Q57.971874 191.91354 57.503124 192.6323Q57.05 193.35104 55.83125 194.1948Q55.1125 194.6948 54.8625 194.89792Q54.628124 195.10104 54.3 195.41354L58.034374 195.41354L58.034374 197.36667ZM59.05 193.03854Q59.05 190.58542 59.925 189.61667Q60.8 188.6323 62.6125 188.6323Q63.471874 188.6323 64.03438 188.85104Q64.59688 189.05417 64.94063 189.39792Q65.3 189.74167 65.50313 190.11667Q65.70625 190.49167 65.81563 191.0073Q66.06563 191.96042 66.06563 193.0073Q66.06563 195.35104 65.26875 196.42917Q64.4875 197.5073 62.55 197.5073Q61.45625 197.5073 60.784374 197.16354Q60.128124 196.8198 59.70625 196.14792Q59.39375 195.67917 59.221874 194.86667Q59.05 194.03854 59.05 193.03854ZM61.409374 193.03854Q61.409374 194.67917 61.690624 195.28854Q61.9875 195.8823 62.534374 195.8823Q62.909374 195.8823 63.175 195.6323Q63.440624 195.36667 63.565624 194.8198Q63.690624 194.27292 63.690624 193.10104Q63.690624 191.39792 63.39375 190.80417Q63.1125 190.21042 62.534374 190.21042Q61.940624 190.21042 61.675 190.8198Q61.409374 191.41354 61.409374 193.03854ZM67.05 193.03854Q67.05 190.58542 67.925 189.61667Q68.8 188.6323 70.6125 188.6323Q71.47188 188.6323 72.03438 188.85104Q72.59688 189.05417 72.94063 189.39792Q73.3 189.74167 73.50313 190.11667Q73.70625 190.49167 73.81563 191.0073Q74.06563 191.96042 74.06563 193.0073Q74.06563 195.35104 73.26875 196.42917Q72.4875 197.5073 70.55 197.5073Q69.45625 197.5073 68.78438 197.16354Q68.12813 196.8198 67.70625 196.14792Q67.39375 195.67917 67.22188 194.86667Q67.05 194.03854 67.05 193.03854ZM69.40938 193.03854Q69.40938 194.67917 69.69063 195.28854Q69.9875 195.8823 70.53438 195.8823Q70.90938 195.8823 71.175 195.6323Q71.44063 195.36667 71.56563 194.8198Q71.69063 194.27292 71.69063 193.10104Q71.69063 191.39792 71.39375 190.80417Q71.1125 190.21042 70.53438 190.21042Q69.94063 190.21042 69.675 190.8198Q69.40938 191.41354 69.40938 193.03854ZM75.05 193.03854Q75.05 190.58542 75.925 189.61667Q76.8 188.6323 78.6125 188.6323Q79.47188 188.6323 80.03438 188.85104Q80.59688 189.05417 80.94063 189.39792Q81.3 189.74167 81.50313 190.11667Q81.70625 190.49167 81.81563 191.0073Q82.06563 191.96042 82.06563 193.0073Q82.06563 195.35104 81.26875 196.42917Q80.4875 197.5073 78.55 197.5073Q77.45625 197.5073 76.78438 197.16354Q76.12813 196.8198 75.70625 196.14792Q75.39375 195.67917 75.22188 194.86667Q75.05 194.03854 75.05 193.03854ZM77.40938 193.03854Q77.40938 194.67917 77.69063 195.28854Q77.9875 195.8823 78.53438 195.8823Q78.90938 195.8823 79.175 195.6323Q79.44063 195.36667 79.56563 194.8198Q79.69063 194.27292 79.69063 193.10104Q79.69063 191.39792 79.39375 190.80417Q79.1125 190.21042 78.53438 190.21042Q77.94063 190.21042 77.675 190.8198Q77.40938 191.41354 77.40938 193.03854Z" fill-rule="nonzero"/><path fill="#000000" d="M53.3625 137.71562L51.096874 137.30937Q51.378124 136.23125 52.175 135.66875Q52.9875 135.09062 54.440624 135.09062Q56.128124 135.09062 56.878124 135.71562Q57.628124 136.34062 57.628124 137.29375Q57.628124 137.84062 57.315624 138.29375Q57.01875 138.74687 56.409374 139.09062Q56.909374 139.21562 57.159374 139.37187Q57.596874 139.6375 57.83125 140.075Q58.065624 140.49687 58.065624 141.10625Q58.065624 141.85625 57.675 142.54375Q57.284374 143.23125 56.534374 143.60625Q55.8 143.96562 54.6125 143.96562Q53.440624 143.96562 52.753124 143.7Q52.08125 143.41875 51.64375 142.8875Q51.20625 142.35625 50.971874 141.55937L53.3625 141.24687Q53.503124 141.96562 53.8 142.24687Q54.096874 142.5125 54.55 142.5125Q55.034374 142.5125 55.346874 142.16875Q55.659374 141.80937 55.659374 141.23125Q55.659374 140.6375 55.346874 140.30937Q55.05 139.98125 54.51875 139.98125Q54.2375 139.98125 53.753124 140.12187L53.878124 138.40312Q54.065624 138.43437 54.190624 138.43437Q54.659374 138.43437 54.971874 138.1375Q55.284374 137.84062 55.284374 137.43437Q55.284374 137.04375 55.05 136.80937Q54.815624 136.575 54.39375 136.575Q53.971874 136.575 53.70625 136.825Q53.45625 137.075 53.3625 137.71562ZM59.05 139.49687Q59.05 137.04375 59.925 136.075Q60.8 135.09062 62.6125 135.09062Q63.471874 135.09062 64.03438 135.30937Q64.59688 135.5125 64.94063 135.85625Q65.3 136.2 65.50313 136.575Q65.70625 136.95 65.81563 137.46562Q66.06563 138.41875 66.06563 139.46562Q66.06563 141.80937 65.26875 142.8875Q64.4875 143.96562 62.55 143.96562Q61.45625 143.96562 60.784374 143.62187Q60.128124 143.27812 59.70625 142.60625Q59.39375 142.1375 59.221874 141.325Q59.05 140.49687 59.05 139.49687ZM61.409374 139.49687Q61.409374 141.1375 61.690624 141.74687Q61.9875 142.34062 62.534374 142.34062Q62.909374 142.34062 63.175 142.09062Q63.440624 141.825 63.565624 141.27812Q63.690624 140.73125 63.690624 139.55937Q63.690624 137.85625 63.39375 137.2625Q63.1125 136.66875 62.534374 136.66875Q61.940624 136.66875 61.675 137.27812Q61.409374 137.87187 61.409374 139.49687ZM67.05 139.49687Q67.05 137.04375 67.925 136.075Q68.8 135.09062 70.6125 135.09062Q71.47188 135.09062 72.03438 135.30937Q72.59688 135.5125 72.94063 135.85625Q73.3 136.2 73.50313 136.575Q73.70625 136.95 73.81563 137.46562Q74.06563 138.41875 74.06563 139.46562Q74.06563 141.80937 73.26875 142.8875Q72.4875 143.96562 70.55 143.96562Q69.45625 143.96562 68.78438 143.62187Q68.12813 143.27812 67.70625 142.60625Q67.39375 142.1375 67.22188 141.325Q67.05 140.49687 67.05 139.49687ZM69.40938 139.49687Q69.40938 141.1375 69.69063 141.74687Q69.9875 142.34062 70.53438 142.34062Q70.90938 142.34062 71.175 142.09062Q71.44063 141.825 71.56563 141.27812Q71.69063 140.73125 71.69063 139.55937Q71.69063 137.85625 71.39375 137.2625Q71.1125 136.66875 70.53438 136.66875Q69.94063 136.66875 69.675 137.27812Q69.40938 137.87187 69.40938 139.49687ZM75.05 139.49687Q75.05 137.04375 75.925 136.075Q76.8 135.09062 78.6125 135.09062Q79.47188 135.09062 80.03438 135.30937Q80.59688 135.5125 80.94063 135.85625Q81.3 136.2 81.50313 136.575Q81.70625 136.95 81.81563 137.46562Q82.06563 138.41875 82.06563 139.46562Q82.06563 141.80937 81.26875 142.8875Q80.4875 143.96562 78.55 143.96562Q77.45625 143.96562 76.78438 143.62187Q76.12813 143.27812 75.70625 142.60625Q75.39375 142.1375 75.22188 141.325Q75.05 140.49687 75.05 139.49687ZM77.40938 139.49687Q77.40938 141.1375 77.69063 141.74687Q77.9875 142.34062 78.53438 142.34062Q78.90938 142.34062 79.175 142.09062Q79.44063 141.825 79.56563 141.27812Q79.69063 140.73125 79.69063 139.55937Q79.69063 137.85625 79.39375 137.2625Q79.1125 136.66875 78.53438 136.66875Q77.94063 136.66875 77.675 137.27812Q77.40938 137.87187 77.40938 139.49687Z" fill-rule="nonzero"/><path fill="#000000" d="M55.14375 88.67396L50.8 88.67396L50.8 86.72083L55.14375 81.54896L57.221874 81.54896L57.221874 86.83021L58.3 86.83021L58.3 88.67396L57.221874 88.67396L57.221874 90.28333L55.14375 90.28333L55.14375 88.67396ZM55.14375 86.83021L55.14375 84.12708L52.846874 86.83021L55.14375 86.83021ZM59.05 85.95521Q59.05 83.50208 59.925 82.53333Q60.8 81.54896 62.6125 81.54896Q63.471874 81.54896 64.03438 81.76771Q64.59688 81.97083 64.94063 82.31458Q65.3 82.65833 65.50313 83.03333Q65.70625 83.40833 65.81563 83.92396Q66.06563 84.87708 66.06563 85.92396Q66.06563 88.26771 65.26875 89.34583Q64.4875 90.42396 62.55 90.42396Q61.45625 90.42396 60.784374 90.08021Q60.128124 89.73646 59.70625 89.06458Q59.39375 88.59583 59.221874 87.78333Q59.05 86.95521 59.05 85.95521ZM61.409374 85.95521Q61.409374 87.59583 61.690624 88.20521Q61.9875 88.79896 62.534374 88.79896Q62.909374 88.79896 63.175 88.54896Q63.440624 88.28333 63.565624 87.73646Q63.690624 87.18958 63.690624 86.01771Q63.690624 84.31458 63.39375 83.72083Q63.1125 83.12708 62.534374 83.12708Q61.940624 83.12708 61.675 83.73646Q61.409374 84.33021 61.409374 85.95521ZM67.05 85.95521Q67.05 83.50208 67.925 82.53333Q68.8 81.54896 70.6125 81.54896Q71.47188 81.54896 72.03438 81.76771Q72.59688 81.97083 72.94063 82.31458Q73.3 82.65833 73.50313 83.03333Q73.70625 83.40833 73.81563 83.92396Q74.06563 84.87708 74.06563 85.92396Q74.06563 88.26771 73.26875 89.34583Q72.4875 90.42396 70.55 90.42396Q69.45625 90.42396 68.78438 90.08021Q68.12813 89.73646 67.70625 89.06458Q67.39375 88.59583 67.22188 87.78333Q67.05 86.95521 67.05 85.95521ZM69.40938 85.95521Q69.40938 87.59583 69.69063 88.20521Q69.9875 88.79896 70.53438 88.79896Q70.90938 88.79896 71.175 88.54896Q71.44063 88.28333 71.56563 87.73646Q71.69063 87.18958 71.69063 86.01771Q71.69063 84.31458 71.39375 83.72083Q71.1125 83.12708 70.53438 83.12708Q69.94063 83.12708 69.675 83.73646Q69.40938 84.33021 69.40938 85.95521ZM75.05 85.95521Q75.05 83.50208 75.925 82.53333Q76.8 81.54896 78.6125 81.54896Q79.47188 81.54896 80.03438 81.76771Q80.59688 81.97083 80.94063 82.31458Q81.3 82.65833 81.50313 83.03333Q81.70625 83.40833 81.81563 83.92396Q82.06563 84.87708 82.06563 85.92396Q82.06563 88.26771 81.26875 89.34583Q80.4875 90.42396 78.55 90.42396Q77.45625 90.42396 76.78438 90.08021Q76.12813 89.73646 75.70625 89.06458Q75.39375 88.59583 75.22188 87.78333Q75.05 86.95521 75.05 85.95521ZM77.40938 85.95521Q77.40938 87.59583 77.69063 88.20521Q77.9875 88.79896 78.53438 88.79896Q78.90938 88.79896 79.175 88.54896Q79.44063 88.28333 79.56563 87.73646Q79.69063 87.18958 79.69063 86.01771Q79.69063 84.31458 79.39375 83.72083Q79.1125 83.12708 78.53438 83.12708Q77.94063 83.12708 77.675 83.73646Q77.40938 84.33021 77.40938 85.95521Z" fill-rule="nonzero"/><path fill="#000000" d="M202.33585 308.71564L202.33585 317.45L199.91397 317.45L199.91397 311.73126Q199.33585 312.16876 198.78897 312.45Q198.2421 312.71564 197.41397 312.96564L197.41397 311.0125Q198.63272 310.6219 199.3046 310.075Q199.97647 309.52814 200.35147 308.71564L202.33585 308.71564ZM204.9296 313.1219Q204.9296 310.66876 205.8046 309.7Q206.6796 308.71564 208.4921 308.71564Q209.35147 308.71564 209.91397 308.9344Q210.47647 309.1375 210.82022 309.48126Q211.1796 309.825 211.38272 310.2Q211.58585 310.575 211.69522 311.09064Q211.94522 312.04376 211.94522 313.09064Q211.94522 315.4344 211.14835 316.5125Q210.3671 317.59064 208.4296 317.59064Q207.33585 317.59064 206.66397 317.2469Q206.00772 316.90314 205.58585 316.23126Q205.27335 315.7625 205.10147 314.95Q204.9296 314.1219 204.9296 313.1219ZM207.28897 313.1219Q207.28897 314.7625 207.57022 315.3719Q207.8671 315.96564 208.41397 315.96564Q208.78897 315.96564 209.0546 315.71564Q209.32022 315.45 209.44522 314.90314Q209.57022 314.35626 209.57022 313.1844Q209.57022 311.48126 209.27335 310.8875Q208.9921 310.29376 208.41397 310.29376Q207.82022 310.29376 207.5546 310.90314Q207.28897 311.4969 207.28897 313.1219Z" fill-rule="nonzero"/><path fill="#000000" d="M332.66907 317.45L325.4972 317.45Q325.6222 316.3875 326.2472 315.45Q326.8722 314.5125 328.59094 313.2469Q329.63782 312.46564 329.9347 312.0594Q330.23157 311.65314 330.23157 311.29376Q330.23157 310.90314 329.9347 310.6219Q329.63782 310.34064 329.20032 310.34064Q328.7472 310.34064 328.45032 310.6375Q328.16907 310.91876 328.07532 311.65314L325.6847 311.45Q325.82532 310.45 326.20032 309.8875Q326.57532 309.3094 327.2472 309.0125Q327.9347 308.71564 329.13782 308.71564Q330.40344 308.71564 331.09094 309.0125Q331.79407 309.29376 332.20032 309.8875Q332.60657 310.48126 332.60657 311.21564Q332.60657 311.9969 332.13782 312.71564Q331.6847 313.4344 330.46594 314.27814Q329.7472 314.77814 329.4972 314.98126Q329.26282 315.1844 328.9347 315.4969L332.66907 315.4969L332.66907 317.45ZM333.6847 313.1219Q333.6847 310.66876 334.5597 309.7Q335.4347 308.71564 337.2472 308.71564Q338.10657 308.71564 338.66907 308.9344Q339.23157 309.1375 339.57532 309.48126Q339.9347 309.825 340.13782 310.2Q340.34094 310.575 340.45032 311.09064Q340.70032 312.04376 340.70032 313.09064Q340.70032 315.4344 339.90344 316.5125Q339.1222 317.59064 337.1847 317.59064Q336.09094 317.59064 335.41907 317.2469Q334.76282 316.90314 334.34094 316.23126Q334.02844 315.7625 333.85657 314.95Q333.6847 314.1219 333.6847 313.1219ZM336.04407 313.1219Q336.04407 314.7625 336.32532 315.3719Q336.6222 315.96564 337.16907 315.96564Q337.54407 315.96564 337.8097 315.71564Q338.07532 315.45 338.20032 314.90314Q338.32532 314.35626 338.32532 313.1844Q338.32532 311.48126 338.02844 310.8875Q337.7472 310.29376 337.16907 310.29376Q336.57532 310.29376 336.3097 310.90314Q336.04407 311.4969 336.04407 313.1219Z" fill-rule="nonzero"/><path fill="#000000" d="M456.7523 311.34064L454.48666 310.9344Q454.7679 309.85626 455.5648 309.29376Q456.3773 308.71564 457.8304 308.71564Q459.5179 308.71564 460.2679 309.34064Q461.0179 309.96564 461.0179 310.91876Q461.0179 311.46564 460.7054 311.91876Q460.40854 312.3719 459.79916 312.71564Q460.29916 312.84064 460.54916 312.9969Q460.98666 313.2625 461.22104 313.7Q461.4554 314.1219 461.4554 314.73126Q461.4554 315.48126 461.0648 316.16876Q460.67416 316.85626 459.92416 317.23126Q459.1898 317.59064 458.0023 317.59064Q456.8304 317.59064 456.1429 317.325Q455.47104 317.04376 455.03354 316.5125Q454.59604 315.98126 454.36166 315.1844L456.7523 314.8719Q456.8929 315.59064 457.1898 315.8719Q457.48666 316.1375 457.9398 316.1375Q458.42416 316.1375 458.73666 315.79376Q459.04916 315.4344 459.04916 314.85626Q459.04916 314.2625 458.73666 313.9344Q458.4398 313.60626 457.90854 313.60626Q457.6273 313.60626 457.1429 313.7469L457.2679 312.02814Q457.4554 312.0594 457.5804 312.0594Q458.04916 312.0594 458.36166 311.7625Q458.67416 311.46564 458.67416 311.0594Q458.67416 310.66876 458.4398 310.4344Q458.2054 310.2 457.78354 310.2Q457.36166 310.2 457.09604 310.45Q456.84604 310.7 456.7523 311.34064ZM462.4398 313.1219Q462.4398 310.66876 463.3148 309.7Q464.1898 308.71564 466.0023 308.71564Q466.86166 308.71564 467.42416 308.9344Q467.98666 309.1375 468.3304 309.48126Q468.6898 309.825 468.8929 310.2Q469.09604 310.575 469.2054 311.09064Q469.4554 312.04376 469.4554 313.09064Q469.4554 315.4344 468.65854 316.5125Q467.8773 317.59064 465.9398 317.59064Q464.84604 317.59064 464.17416 317.2469Q463.5179 316.90314 463.09604 316.23126Q462.78354 315.7625 462.61166 314.95Q462.4398 314.1219 462.4398 313.1219ZM464.79916 313.1219Q464.79916 314.7625 465.0804 315.3719Q465.3773 315.96564 465.92416 315.96564Q466.29916 315.96564 466.5648 315.71564Q466.8304 315.45 466.9554 314.90314Q467.0804 314.35626 467.0804 313.1844Q467.0804 311.48126 466.78354 310.8875Q466.5023 310.29376 465.92416 310.29376Q465.3304 310.29376 465.0648 310.90314Q464.79916 311.4969 464.79916 313.1219Z" fill-rule="nonzero"/><path fill="#000000" d="M587.28864 315.84064L582.9449 315.84064L582.9449 313.8875L587.28864 308.71564L589.36676 308.71564L589.36676 313.9969L590.4449 313.9969L590.4449 315.84064L589.36676 315.84064L589.36676 317.45L587.28864 317.45L587.28864 315.84064ZM587.28864 313.9969L587.28864 311.29376L584.99176 313.9969L587.28864 313.9969ZM591.1949 313.1219Q591.1949 310.66876 592.0699 309.7Q592.9449 308.71564 594.7574 308.71564Q595.61676 308.71564 596.17926 308.9344Q596.74176 309.1375 597.0855 309.48126Q597.4449 309.825 597.648 310.2Q597.85114 310.575 597.9605 311.09064Q598.2105 312.04376 598.2105 313.09064Q598.2105 315.4344 597.41364 316.5125Q596.6324 317.59064 594.6949 317.59064Q593.60114 317.59064 592.92926 317.2469Q592.273 316.90314 591.85114 316.23126Q591.53864 315.7625 591.36676 314.95Q591.1949 314.1219 591.1949 313.1219ZM593.55426 313.1219Q593.55426 314.7625 593.8355 315.3719Q594.1324 315.96564 594.67926 315.96564Q595.05426 315.96564 595.3199 315.71564Q595.5855 315.45 595.7105 314.90314Q595.8355 314.35626 595.8355 313.1844Q595.8355 311.48126 595.53864 310.8875Q595.2574 310.29376 594.67926 310.29376Q594.0855 310.29376 593.8199 310.90314Q593.55426 311.4969 593.55426 313.1219Z" fill-rule="nonzero"/><path fill="#000000" d="M712.90314 308.85626L718.575 308.85626L718.575 310.7625L714.73126 310.7625L714.52814 312.0594Q714.9344 311.8719 715.325 311.77814Q715.71564 311.6844 716.09064 311.6844Q717.3875 311.6844 718.1844 312.46564Q718.98126 313.23126 718.98126 314.41876Q718.98126 315.2469 718.5594 316.02814Q718.15314 316.79376 717.3875 317.2Q716.6375 317.59064 715.46564 317.59064Q714.60626 317.59064 713.9969 317.4344Q713.40314 317.27814 712.96564 316.96564Q712.54376 316.6375 712.27814 316.23126Q712.0125 315.825 711.84064 315.21564L714.2625 314.96564Q714.34064 315.54376 714.66876 315.84064Q714.9969 316.1375 715.4344 316.1375Q715.9344 316.1375 716.2625 315.7625Q716.59064 315.3875 716.59064 314.6375Q716.59064 313.8719 716.2625 313.5125Q715.9344 313.15314 715.3875 313.15314Q715.04376 313.15314 714.71564 313.325Q714.48126 313.45 714.1844 313.7625L712.15314 313.48126L712.90314 308.85626ZM719.95 313.1219Q719.95 310.66876 720.825 309.7Q721.7 308.71564 723.5125 308.71564Q724.3719 308.71564 724.9344 308.9344Q725.4969 309.1375 725.84064 309.48126Q726.2 309.825 726.40314 310.2Q726.60626 310.575 726.71564 311.09064Q726.96564 312.04376 726.96564 313.09064Q726.96564 315.4344 726.16876 316.5125Q725.3875 317.59064 723.45 317.59064Q722.35626 317.59064 721.6844 317.2469Q721.02814 316.90314 720.60626 316.23126Q720.29376 315.7625 720.1219 314.95Q719.95 314.1219 719.95 313.1219ZM722.3094 313.1219Q722.3094 314.7625 722.59064 315.3719Q722.8875 315.96564 723.4344 315.96564Q723.8094 315.96564 724.075 315.71564Q724.34064 315.45 724.46564 314.90314Q724.59064 314.35626 724.59064 313.1844Q724.59064 311.48126 724.29376 310.8875Q724.0125 310.29376 723.4344 310.29376Q722.84064 310.29376 722.575 310.90314Q722.3094 311.4969 722.3094 313.1219Z" fill-rule="nonzero"/><path fill="#4285f4" d="M341.0 54.916668L347.0 60.916668L341.0 66.916664L335.0 60.916668Z" fill-rule="nonzero"/><path fill="#ea4335" d="M369.0 54.916668L375.0 60.916668L369.0 66.916664L363.0 60.916668Z" fill-rule="nonzero"/><path fill="#6aa84f" d="M397.0 54.916668L403.0 60.916668L397.0 66.916664L391.0 60.916668Z" fill-rule="nonzero"/><path fill="#757575" d="M19.2375 32.815624L23.45625 32.55Q23.596874 33.58125 24.003124 34.1125Q24.690624 34.9875 25.95625 34.9875Q26.909374 34.9875 27.425 34.55Q27.940624 34.096874 27.940624 33.503124Q27.940624 32.95625 27.440624 32.503124Q26.95625 32.065624 25.175 31.675Q22.26875 31.01875 21.034374 29.940624Q19.784374 28.8625 19.784374 27.175Q19.784374 26.08125 20.425 25.096874Q21.065624 24.1125 22.346874 23.55Q23.628124 22.9875 25.8625 22.9875Q28.6125 22.9875 30.05 24.01875Q31.4875 25.034374 31.76875 27.253124L27.596874 27.503124Q27.425 26.534374 26.89375 26.096874Q26.3625 25.659374 25.425 25.659374Q24.659374 25.659374 24.26875 25.9875Q23.878124 26.315624 23.878124 26.784374Q23.878124 27.1125 24.190624 27.39375Q24.503124 27.675 25.675 27.925Q28.58125 28.55 29.83125 29.190624Q31.096874 29.83125 31.659374 30.784374Q32.2375 31.721874 32.2375 32.89375Q32.2375 34.26875 31.471874 35.440624Q30.70625 36.596874 29.33125 37.20625Q27.971874 37.8 25.89375 37.8Q22.2375 37.8 20.83125 36.39375Q19.425 34.9875 19.2375 32.815624ZM41.4875 33.503124L45.26875 33.925Q44.95625 35.1125 44.2375 35.971874Q43.534374 36.83125 42.425 37.315624Q41.315624 37.8 39.596874 37.8Q37.95625 37.8 36.846874 37.4875Q35.753124 37.175 34.95625 36.4875Q34.175 35.8 33.721874 34.878124Q33.26875 33.940624 33.26875 32.409374Q33.26875 30.815624 33.815624 29.753124Q34.221874 28.971874 34.909374 28.346874Q35.6125 27.721874 36.346874 27.425Q37.503124 26.940624 39.315624 26.940624Q41.8625 26.940624 43.190624 27.846874Q44.51875 28.753124 45.065624 30.503124L41.315624 31.003124Q41.14375 30.346874 40.675 30.01875Q40.221874 29.675 39.440624 29.675Q38.45625 29.675 37.83125 30.378124Q37.221874 31.08125 37.221874 32.51875Q37.221874 33.8 37.83125 34.471874Q38.440624 35.128124 39.378124 35.128124Q40.159374 35.128124 40.690624 34.7375Q41.221874 34.33125 41.4875 33.503124ZM58.26875 33.346874L50.3 33.346874Q50.409374 34.3 50.815624 34.76875Q51.39375 35.45625 52.315624 35.45625Q52.909374 35.45625 53.425 35.159374Q53.753124 34.971874 54.128124 34.503124L58.034374 34.8625Q57.14375 36.425 55.8625 37.1125Q54.596874 37.784374 52.2375 37.784374Q50.175 37.784374 48.9875 37.20625Q47.8 36.628124 47.01875 35.3625Q46.253124 34.096874 46.253124 32.378124Q46.253124 29.95625 47.8 28.45625Q49.3625 26.940624 52.1125 26.940624Q54.346874 26.940624 55.628124 27.6125Q56.925 28.284374 57.596874 29.565624Q58.26875 30.846874 58.26875 32.89375L58.26875 33.346874ZM54.221874 31.440624Q54.1125 30.3 53.596874 29.8Q53.096874 29.3 52.284374 29.3Q51.33125 29.3 50.76875 30.05Q50.409374 30.51875 50.3 31.440624L54.221874 31.440624ZM59.753124 27.175L63.45625 27.175L63.45625 28.8625Q64.28438 27.83125 65.12813 27.39375Q65.9875 26.940624 67.20625 26.940624Q68.84688 26.940624 69.78438 27.925Q70.72188 28.909374 70.72188 30.95625L70.72188 37.55L66.72188 37.55L66.72188 31.846874Q66.72188 30.8625 66.3625 30.471874Q66.00313 30.065624 65.34688 30.065624Q64.62813 30.065624 64.175 30.6125Q63.721874 31.159374 63.721874 32.565624L63.721874 37.55L59.753124 37.55L59.753124 27.175ZM76.37813 30.534374L72.58125 30.14375Q72.78438 29.14375 73.19063 28.58125Q73.59688 28.003124 74.3625 27.58125Q74.90938 27.26875 75.8625 27.1125Q76.83125 26.940624 77.94063 26.940624Q79.72188 26.940624 80.8 27.14375Q81.89375 27.346874 82.6125 27.971874Q83.12813 28.425 83.40938 29.2375Q83.70625 30.034374 83.70625 30.76875L83.70625 35.346874Q83.70625 36.08125 83.8 36.503124Q83.89375 36.909374 84.20625 37.55L80.47188 37.55Q80.25313 37.14375 80.175 36.940624Q80.1125 36.721874 80.05 36.284374Q79.26875 37.034374 78.4875 37.346874Q77.44063 37.784374 76.05 37.784374Q74.19063 37.784374 73.22188 36.925Q72.26875 36.065624 72.26875 34.8Q72.26875 33.628124 72.95625 32.8625Q73.64375 32.096874 75.51875 31.721874Q77.75313 31.284374 78.40938 31.1125Q79.08125 30.925 79.81563 30.628124Q79.81563 29.89375 79.51875 29.596874Q79.22188 29.3 78.45625 29.3Q77.47188 29.3 76.9875 29.6125Q76.6125 29.8625 76.37813 30.534374ZM79.81563 32.628124Q79.00313 32.925 78.1125 33.14375Q76.90938 33.471874 76.58125 33.784374Q76.25313 34.096874 76.25313 34.51875Q76.25313 34.9875 76.58125 35.284374Q76.90938 35.58125 77.53438 35.58125Q78.20625 35.58125 78.76875 35.253124Q79.34688 34.925 79.58125 34.471874Q79.81563 34.003124 79.81563 33.26875L79.81563 32.628124ZM85.78438 27.175L89.51875 27.175L89.51875 28.878124Q90.05 27.76875 90.6125 27.3625Q91.19063 26.940624 92.03438 26.940624Q92.90938 26.940624 93.95625 27.4875L92.72188 30.315624Q92.01875 30.034374 91.6125 30.034374Q90.83125 30.034374 90.39375 30.675Q89.78438 31.58125 89.78438 34.065624L89.78438 37.55L85.78438 37.55L85.78438 27.175ZM94.89375 23.2375L98.87813 23.2375L98.87813 25.940624L94.89375 25.940624L94.89375 23.2375ZM94.89375 27.175L98.87813 27.175L98.87813 37.55L94.89375 37.55L94.89375 27.175ZM101.26875 32.39375Q101.26875 30.01875 102.8625 28.4875Q104.47188 26.940624 107.19063 26.940624Q110.3 26.940624 111.89375 28.753124Q113.175 30.20625 113.175 32.33125Q113.175 34.721874 111.58125 36.253124Q110.00313 37.784374 107.20625 37.784374Q104.70625 37.784374 103.15938 36.51875Q101.26875 34.940624 101.26875 32.39375ZM105.25313 32.378124Q105.25313 33.76875 105.81563 34.440624Q106.37813 35.096874 107.22188 35.096874Q108.08125 35.096874 108.62813 34.440624Q109.19063 33.784374 109.19063 32.346874Q109.19063 31.003124 108.62813 30.346874Q108.06563 29.675 107.25313 29.675Q106.37813 29.675 105.81563 30.346874Q105.25313 31.01875 105.25313 32.378124ZM123.37813 22.9875L123.37813 37.55L119.3625 37.55L119.3625 28.003124Q118.37813 28.753124 117.47188 29.221874Q116.56563 29.675 115.175 30.08125L115.175 26.83125Q117.20625 26.175 118.33125 25.253124Q119.45625 24.33125 120.09688 22.9875L123.37813 22.9875Z" fill-rule="nonzero"/></svg>