<svg version="1.1" viewBox="0.0 0.0 835.0 371.0" fill="none" stroke="none" stroke-linecap="square" stroke-miterlimit="10" width="835" height="371" xmlns:xlink="http://www.w3.org/1999/xlink" xmlns="http://www.w3.org/2000/svg"><path fill="#f6f8fa" d="M0 0L835.0 0L835.0 371.0L0 371.0L0 0Z" fill-rule="nonzero"/><path stroke="#c3c5c7" stroke-width="1.0" stroke-linecap="butt" d="M162.5 51.5L162.5 295.5" fill-rule="nonzero"/><path stroke="#c3c5c7" stroke-width="1.0" stroke-linecap="butt" d="M263.5 51.5L263.5 295.5" fill-rule="nonzero"/><path stroke="#c3c5c7" stroke-width="1.0" stroke-linecap="butt" d="M364.5 51.5L364.5 295.5" fill-rule="nonzero"/><path stroke="#c3c5c7" stroke-width="1.0" stroke-linecap="butt" d="M464.5 51.5L464.5 295.5" fill-rule="nonzero"/><path stroke="#c3c5c7" stroke-width="1.0" stroke-linecap="butt" d="M565.5 51.5L565.5 295.5" fill-rule="nonzero"/><path stroke="#c3c5c7" stroke-width="1.0" stroke-linecap="butt" d="M665.5 51.5L665.5 295.5" fill-rule="nonzero"/><path stroke="#c3c5c7" stroke-width="1.0" stroke-linecap="butt" d="M766.5 51.5L766.5 295.5" fill-rule="nonzero"/><path stroke="#2b2c2c" stroke-width="1.0" stroke-linecap="butt" d="M82.5 295.5L816.5 295.5" fill-rule="nonzero"/><path stroke="#c3c5c7" stroke-width="1.0" stroke-linecap="butt" d="M82.5 234.5L816.5 234.5" fill-rule="nonzero"/><path stroke="#c3c5c7" stroke-width="1.0" stroke-linecap="butt" d="M82.5 173.5L816.5 173.5" fill-rule="nonzero"/><path stroke="#c3c5c7" stroke-width="1.0" stroke-linecap="butt" d="M82.5 112.5L816.5 112.5" fill-rule="nonzero"/><path stroke="#c3c5c7" stroke-width="1.0" stroke-linecap="butt" d="M82.5 51.5L816.5 51.5" fill-rule="nonzero"/><clipPath id="id_0"><path d="M82.55 51.916668L816.45 51.916668L816.45 295.45L82.55 295.45L82.55 51.916668Z" clip-rule="nonzero"/></clipPath><path fill="#4285f4" fill-opacity="0.14901961" clip-path="url(#id_0)" d="M82.55 225.43417C82.55 225.43417 95.95457 175.71278 102.65685 152.37416C109.35913 129.03555 122.7637 85.4025 122.7637 85.4025L122.7637 295.45C122.7637 295.45 109.35913 295.45 102.65685 295.45C95.95457 295.45 82.55 295.45 82.55 295.45Z" fill-rule="nonzero"/><path fill="#ea4335" fill-opacity="0.14901961" clip-path="url(#id_0)" d="M82.55 225.43417C82.55 225.43417 95.95457 180.78639 102.65685 158.4625C109.35913 136.13861 122.7637 91.49084 122.7637 91.49084L122.7637 295.45C122.7637 295.45 109.35913 295.45 102.65685 295.45C95.95457 295.45 82.55 295.45 82.55 295.45Z" fill-rule="nonzero"/><path fill="#38761d" fill-opacity="0.14901961" clip-path="url(#id_0)" d="M82.55 295.0238C82.55 295.0238 95.95457 294.71432 102.65685 294.5672C109.35913 294.42004 116.06142 294.2856 122.7637 294.14102C129.46599 293.9964 149.57283 293.54944 162.9774 293.2582C176.38196 292.96698 230.00023 291.8249 263.51166 291.09683C297.02307 290.36877 431.06873 287.39056 464.58014 286.6828C498.09155 285.97504 531.60297 285.3383 565.1144 284.64322C598.6258 283.94812 682.40436 282.19266 715.9158 281.44684C749.4272 280.70102 816.45 279.1028 816.45 279.1028L816.45 295.45C816.45 295.45 749.4272 295.45 715.9158 295.45C682.40436 295.45 598.6258 295.45 565.1144 295.45C531.60297 295.45 498.09155 295.45 464.58014 295.45C431.06873 295.45 297.02307 295.45 263.51166 295.45C230.00023 295.45 176.38196 295.45 162.9774 295.45C149.57283 295.45 129.46599 295.45 122.7637 295.45C116.06142 295.45 109.35913 295.45 102.65685 295.45C95.95457 295.45 82.55 295.45 82.55 295.45Z" fill-rule="nonzero"/><path fill="#6aa84f" fill-opacity="0.14901961" clip-path="url(#id_0)" d="M82.55 294.84116C82.55 294.84116 95.95457 294.43527 102.65685 294.23233C109.35913 294.0294 116.06142 293.8239 122.7637 293.6235C129.46599 293.4231 149.57283 292.82898 162.9774 292.43628C176.38196 292.04358 230.00023 290.50577 263.51166 289.5139C297.02307 288.52197 431.06873 284.4073 464.58014 283.456C498.09155 282.50467 531.60297 281.63962 565.1144 280.77713C598.6258 279.9146 682.40436 277.7025 715.9158 277.0328C749.4272 276.36307 816.45 275.5107 816.45 275.5107L816.45 295.45C816.45 295.45 749.4272 295.45 715.9158 295.45C682.40436 295.45 598.6258 295.45 565.1144 295.45C531.60297 295.45 498.09155 295.45 464.58014 295.45C431.06873 295.45 297.02307 295.45 263.51166 295.45C230.00023 295.45 176.38196 295.45 162.9774 295.45C149.57283 295.45 129.46599 295.45 122.7637 295.45C116.06142 295.45 109.35913 295.45 102.65685 295.45C95.95457 295.45 82.55 295.45 82.55 295.45Z" fill-rule="nonzero"/><path stroke="#4285f4" stroke-width="2.0" stroke-linecap="butt" clip-path="url(#id_0)" d="M82.55 225.43417C82.55 225.43417 95.95457 175.71278 102.65685 152.37416C109.35913 129.03555 122.7637 85.4025 122.7637 85.4025" fill-rule="nonzero"/><path stroke="#ea4335" stroke-width="2.0" stroke-linecap="butt" clip-path="url(#id_0)" d="M82.55 225.43417C82.55 225.43417 95.95457 180.78639 102.65685 158.4625C109.35913 136.13861 122.7637 91.49084 122.7637 91.49084" fill-rule="nonzero"/><path stroke="#38761d" stroke-width="2.0" stroke-linecap="butt" clip-path="url(#id_0)" d="M82.55 295.0238C82.55 295.0238 95.95457 294.71432 102.65685 294.5672C109.35913 294.42004 116.06142 294.2856 122.7637 294.14102C129.46599 293.9964 149.57283 293.54944 162.9774 293.2582C176.38196 292.96698 230.00023 291.8249 263.51166 291.09683C297.02307 290.36877 431.06873 287.39056 464.58014 286.6828C498.09155 285.97504 531.60297 285.3383 565.1144 284.64322C598.6258 283.94812 682.40436 282.19266 715.9158 281.44684C749.4272 280.70102 816.45 279.1028 816.45 279.1028" fill-rule="nonzero"/><path stroke="#6aa84f" stroke-width="2.0" stroke-linecap="butt" clip-path="url(#id_0)" d="M82.55 294.84116C82.55 294.84116 95.95457 294.43527 102.65685 294.23233C109.35913 294.0294 116.06142 293.8239 122.7637 293.6235C129.46599 293.4231 149.57283 292.82898 162.9774 292.43628C176.38196 292.04358 230.00023 290.50577 263.51166 289.5139C297.02307 288.52197 431.06873 284.4073 464.58014 283.456C498.09155 282.50467 531.60297 281.63962 565.1144 280.77713C598.6258 279.9146 682.40436 277.7025 715.9158 277.0328C749.4272 276.36307 816.45 275.5107 816.45 275.5107" fill-rule="nonzero"/><path fill="#4285f4" clip-path="url(#id_0)" d="M82.55 222.43417L85.55 225.43417L82.55 228.43417L79.55 225.43417Z" fill-rule="nonzero"/><path fill="#4285f4" clip-path="url(#id_0)" d="M102.65685 149.37416L105.65685 152.37416L102.65685 155.37416L99.65685 152.37416Z" fill-rule="nonzero"/><path fill="#4285f4" clip-path="url(#id_0)" d="M122.7637 82.4025L125.7637 85.4025L122.7637 88.4025L119.7637 85.4025Z" fill-rule="nonzero"/><path fill="#ea4335" clip-path="url(#id_0)" d="M82.55 222.43417L85.55 225.43417L82.55 228.43417L79.55 225.43417Z" fill-rule="nonzero"/><path fill="#ea4335" clip-path="url(#id_0)" d="M102.65685 155.4625L105.65685 158.4625L102.65685 161.4625L99.65685 158.4625Z" fill-rule="nonzero"/><path fill="#ea4335" clip-path="url(#id_0)" d="M122.7637 88.49084L125.7637 91.49084L122.7637 94.49084L119.7637 91.49084Z" fill-rule="nonzero"/><path fill="#38761d" clip-path="url(#id_0)" d="M82.55 292.0238L85.55 295.0238L82.55 298.0238L79.55 295.0238Z" fill-rule="nonzero"/><path fill="#38761d" clip-path="url(#id_0)" d="M102.65685 291.5672L105.65685 294.5672L102.65685 297.5672L99.65685 294.5672Z" fill-rule="nonzero"/><path fill="#38761d" clip-path="url(#id_0)" d="M122.7637 291.14102L125.7637 294.14102L122.7637 297.14102L119.7637 294.14102Z" fill-rule="nonzero"/><path fill="#38761d" clip-path="url(#id_0)" d="M162.9774 290.2582L165.9774 293.2582L162.9774 296.2582L159.9774 293.2582Z" fill-rule="nonzero"/><path fill="#38761d" clip-path="url(#id_0)" d="M263.51166 288.09683L266.51166 291.09683L263.51166 294.09683L260.51166 291.09683Z" fill-rule="nonzero"/><path fill="#38761d" clip-path="url(#id_0)" d="M464.58014 283.6828L467.58014 286.6828L464.58014 289.6828L461.58014 286.6828Z" fill-rule="nonzero"/><path fill="#38761d" clip-path="url(#id_0)" d="M565.1144 281.64322L568.1144 284.64322L565.1144 287.64322L562.1144 284.64322Z" fill-rule="nonzero"/><path fill="#38761d" clip-path="url(#id_0)" d="M715.9158 278.44684L718.9158 281.44684L715.9158 284.44684L712.9158 281.44684Z" fill-rule="nonzero"/><path fill="#38761d" clip-path="url(#id_0)" d="M816.45 276.1028L819.45 279.1028L816.45 282.1028L813.45 279.1028Z" fill-rule="nonzero"/><path fill="#6aa84f" clip-path="url(#id_0)" d="M82.55 291.84116L85.55 294.84116L82.55 297.84116L79.55 294.84116Z" fill-rule="nonzero"/><path fill="#6aa84f" clip-path="url(#id_0)" d="M102.65685 291.23233L105.65685 294.23233L102.65685 297.23233L99.65685 294.23233Z" fill-rule="nonzero"/><path fill="#6aa84f" clip-path="url(#id_0)" d="M122.7637 290.6235L125.7637 293.6235L122.7637 296.6235L119.7637 293.6235Z" fill-rule="nonzero"/><path fill="#6aa84f" clip-path="url(#id_0)" d="M162.9774 289.43628L165.9774 292.43628L162.9774 295.43628L159.9774 292.43628Z" fill-rule="nonzero"/><path fill="#6aa84f" clip-path="url(#id_0)" d="M263.51166 286.5139L266.51166 289.5139L263.51166 292.5139L260.51166 289.5139Z" fill-rule="nonzero"/><path fill="#6aa84f" clip-path="url(#id_0)" d="M464.58014 280.456L467.58014 283.456L464.58014 286.456L461.58014 283.456Z" fill-rule="nonzero"/><path fill="#6aa84f" clip-path="url(#id_0)" d="M565.1144 277.77713L568.1144 280.77713L565.1144 283.77713L562.1144 280.77713Z" fill-rule="nonzero"/><path fill="#6aa84f" clip-path="url(#id_0)" d="M715.9158 274.0328L718.9158 277.0328L715.9158 280.0328L712.9158 277.0328Z" fill-rule="nonzero"/><path fill="#6aa84f" clip-path="url(#id_0)" d="M816.45 272.5107L819.45 275.5107L816.45 278.5107L813.45 275.5107Z" fill-rule="nonzero"/><path fill="#000000" d="M381.04688 349.45L383.14062 339.4344L385.20312 339.4344L384.32812 343.6844L388.95312 339.4344L391.71875 339.4344L387.21875 343.35626L390.51562 349.45L388.1875 349.45L385.71875 344.6844L383.76562 346.3875L383.125 349.45L381.04688 349.45ZM398.98438 346.71564L400.89062 347.02814Q400.42188 348.29376 399.5 348.96564Q398.57812 349.6219 397.35938 349.6219Q395.96875 349.6219 395.15625 348.79376Q394.34375 347.96564 394.34375 346.5125Q394.34375 345.34064 394.82812 344.29376Q395.32812 343.23126 396.3125 342.6219Q397.3125 342.0125 398.48438 342.0125Q399.78125 342.0125 400.54688 342.6844Q401.3125 343.35626 401.40625 344.45L399.53125 344.65314Q399.46875 344.04376 399.15625 343.7625Q398.85938 343.46564 398.375 343.46564Q397.79688 343.46564 397.29688 343.8875Q396.8125 344.3094 396.54688 345.15314Q396.29688 345.9969 396.29688 346.7469Q396.29688 347.3875 396.60938 347.73126Q396.92188 348.075 397.39062 348.075Q397.85938 348.075 398.29688 347.7469Q398.73438 347.40314 398.98438 346.71564ZM402.34375 346.4344Q402.34375 344.41876 403.48438 343.21564Q404.625 342.0125 406.48438 342.0125Q408.07812 342.0125 408.98438 342.90314Q409.89062 343.79376 409.89062 345.29376Q409.89062 347.04376 408.75 348.34064Q407.625 349.6219 405.73438 349.6219Q404.71875 349.6219 403.92188 349.21564Q403.125 348.79376 402.73438 348.04376Q402.34375 347.29376 402.34375 346.4344ZM407.9375 345.02814Q407.9375 344.34064 407.53125 343.91876Q407.125 343.4969 406.48438 343.4969Q405.84375 343.4969 405.34375 343.8875Q404.85938 344.27814 404.57812 345.02814Q404.3125 345.77814 404.3125 346.40314Q404.3125 347.1844 404.73438 347.65314Q405.17188 348.10626 405.8125 348.10626Q406.60938 348.10626 407.15625 347.41876Q407.9375 346.4344 407.9375 345.02814ZM411.60938 342.1844L413.46875 342.1844L413.28125 343.1375Q413.96875 342.52814 414.57812 342.27814Q415.1875 342.0125 415.84375 342.0125Q416.75 342.0125 417.26562 342.52814Q417.78125 343.04376 417.78125 343.8875Q417.78125 344.27814 417.54688 345.34064L416.70312 349.45L414.73438 349.45L415.59375 345.325Q415.79688 344.40314 415.79688 344.23126Q415.79688 343.85626 415.5625 343.6375Q415.34375 343.41876 414.95312 343.41876Q414.51562 343.41876 413.98438 343.77814Q413.46875 344.1375 413.17188 344.7469Q412.95312 345.16876 412.67188 346.46564L412.04688 349.45L410.09375 349.45L411.60938 342.1844ZM423.98438 346.71564L425.89062 347.02814Q425.42188 348.29376 424.5 348.96564Q423.57812 349.6219 422.35938 349.6219Q420.96875 349.6219 420.15625 348.79376Q419.34375 347.96564 419.34375 346.5125Q419.34375 345.34064 419.82812 344.29376Q420.32812 343.23126 421.3125 342.6219Q422.3125 342.0125 423.48438 342.0125Q424.78125 342.0125 425.54688 342.6844Q426.3125 343.35626 426.40625 344.45L424.53125 344.65314Q424.46875 344.04376 424.15625 343.7625Q423.85938 343.46564 423.375 343.46564Q422.79688 343.46564 422.29688 343.8875Q421.8125 344.3094 421.54688 345.15314Q421.29688 345.9969 421.29688 346.7469Q421.29688 347.3875 421.60938 347.73126Q421.92188 348.075 422.39062 348.075Q422.85938 348.075 423.29688 347.7469Q423.73438 347.40314 423.98438 346.71564ZM428.5625 342.1844L430.53125 342.1844L429.625 346.4969Q429.46875 347.2625 429.46875 347.45Q429.46875 347.7625 429.70312 347.9969Q429.9375 348.21564 430.29688 348.21564Q430.54688 348.21564 430.79688 348.1219Q431.0625 348.02814 431.32812 347.825Q431.59375 347.6219 431.79688 347.35626Q432.01562 347.09064 432.20312 346.66876Q432.32812 346.35626 432.48438 345.65314L433.20312 342.1844L435.17188 342.1844L433.65625 349.45L431.8125 349.45L432.03125 348.46564Q430.82812 349.6219 429.40625 349.6219Q428.51562 349.6219 428.0 349.10626Q427.48438 348.59064 427.48438 347.73126Q427.48438 347.35626 427.71875 346.23126L428.5625 342.1844ZM437.46875 342.1844L439.29688 342.1844L439.0 343.59064Q440.03125 342.0125 441.23438 342.0125Q441.65625 342.0125 442.14062 342.23126L441.39062 343.84064Q441.125 343.7469 440.8125 343.7469Q440.3125 343.7469 439.78125 344.1375Q439.26562 344.5125 438.96875 345.15314Q438.67188 345.77814 438.39062 347.16876L437.90625 349.45L435.95312 349.45L437.46875 342.1844ZM443.46875 342.1844L445.29688 342.1844L445.0 343.59064Q446.03125 342.0125 447.23438 342.0125Q447.65625 342.0125 448.14062 342.23126L447.39062 343.84064Q447.125 343.7469 446.8125 343.7469Q446.3125 343.7469 445.78125 344.1375Q445.26562 344.5125 444.96875 345.15314Q444.67188 345.77814 444.39062 347.16876L443.90625 349.45L441.95312 349.45L443.46875 342.1844ZM455.125 346.4344L450.20312 346.4344Q450.20312 346.54376 450.20312 346.60626Q450.20312 347.325 450.60938 347.77814Q451.03125 348.21564 451.625 348.21564Q452.59375 348.21564 453.14062 347.2L454.90625 347.4969Q454.39062 348.5594 453.53125 349.09064Q452.67188 349.6219 451.60938 349.6219Q450.14062 349.6219 449.21875 348.7Q448.3125 347.7625 448.3125 346.2469Q448.3125 344.7469 449.14062 343.59064Q450.26562 342.0125 452.35938 342.0125Q453.6875 342.0125 454.46875 342.84064Q455.26562 343.66876 455.26562 345.15314Q455.26562 345.85626 455.125 346.4344ZM453.46875 345.23126Q453.48438 345.10626 453.48438 345.02814Q453.48438 344.23126 453.10938 343.825Q452.75 343.41876 452.15625 343.41876Q451.54688 343.41876 451.0625 343.8875Q450.57812 344.34064 450.40625 345.23126L453.46875 345.23126ZM457.60938 342.1844L459.46875 342.1844L459.28125 343.1375Q459.96875 342.52814 460.57812 342.27814Q461.1875 342.0125 461.84375 342.0125Q462.75 342.0125 463.26562 342.52814Q463.78125 343.04376 463.78125 343.8875Q463.78125 344.27814 463.54688 345.34064L462.70312 349.45L460.73438 349.45L461.59375 345.325Q461.79688 344.40314 461.79688 344.23126Q461.79688 343.85626 461.5625 343.6375Q461.34375 343.41876 460.95312 343.41876Q460.51562 343.41876 459.98438 343.77814Q459.46875 344.1375 459.17188 344.7469Q458.95312 345.16876 458.67188 346.46564L458.04688 349.45L456.09375 349.45L457.60938 342.1844ZM465.54688 343.65314L465.85938 342.1844L466.8125 342.1844L467.04688 341.02814L469.29688 339.66876L468.76562 342.1844L469.96875 342.1844L469.67188 343.65314L468.46875 343.65314L467.82812 346.6844Q467.65625 347.5125 467.65625 347.6375Q467.65625 347.85626 467.79688 347.98126Q467.95312 348.10626 468.32812 348.10626Q468.45312 348.10626 468.96875 348.0594L468.65625 349.5125Q468.15625 349.6219 467.625 349.6219Q466.57812 349.6219 466.10938 349.23126Q465.64062 348.825 465.64062 348.10626Q465.64062 347.77814 465.89062 346.5594L466.5 343.65314L465.54688 343.65314ZM478.98438 346.71564L480.89062 347.02814Q480.42188 348.29376 479.5 348.96564Q478.57812 349.6219 477.35938 349.6219Q475.96875 349.6219 475.15625 348.79376Q474.34375 347.96564 474.34375 346.5125Q474.34375 345.34064 474.82812 344.29376Q475.32812 343.23126 476.3125 342.6219Q477.3125 342.0125 478.48438 342.0125Q479.78125 342.0125 480.54688 342.6844Q481.3125 343.35626 481.40625 344.45L479.53125 344.65314Q479.46875 344.04376 479.15625 343.7625Q478.85938 343.46564 478.375 343.46564Q477.79688 343.46564 477.29688 343.8875Q476.8125 344.3094 476.54688 345.15314Q476.29688 345.9969 476.29688 346.7469Q476.29688 347.3875 476.60938 347.73126Q476.92188 348.075 477.39062 348.075Q477.85938 348.075 478.29688 347.7469Q478.73438 347.40314 478.98438 346.71564ZM482.04688 349.45L484.14062 339.4344L486.09375 339.4344L484.01562 349.45L482.04688 349.45ZM488.15625 339.4344L490.10938 339.4344L489.75 341.2L487.78125 341.2L488.15625 339.4344ZM487.57812 342.1844L489.54688 342.1844L488.01562 349.45L486.0625 349.45L487.57812 342.1844ZM497.125 346.4344L492.20312 346.4344Q492.20312 346.54376 492.20312 346.60626Q492.20312 347.325 492.60938 347.77814Q493.03125 348.21564 493.625 348.21564Q494.59375 348.21564 495.14062 347.2L496.90625 347.4969Q496.39062 348.5594 495.53125 349.09064Q494.67188 349.6219 493.60938 349.6219Q492.14062 349.6219 491.21875 348.7Q490.3125 347.7625 490.3125 346.2469Q490.3125 344.7469 491.14062 343.59064Q492.26562 342.0125 494.35938 342.0125Q495.6875 342.0125 496.46875 342.84064Q497.26562 343.66876 497.26562 345.15314Q497.26562 345.85626 497.125 346.4344ZM495.46875 345.23126Q495.48438 345.10626 495.48438 345.02814Q495.48438 344.23126 495.10938 343.825Q494.75 343.41876 494.15625 343.41876Q493.54688 343.41876 493.0625 343.8875Q492.57812 344.34064 492.40625 345.23126L495.46875 345.23126ZM499.60938 342.1844L501.46875 342.1844L501.28125 343.1375Q501.96875 342.52814 502.57812 342.27814Q503.1875 342.0125 503.84375 342.0125Q504.75 342.0125 505.26562 342.52814Q505.78125 343.04376 505.78125 343.8875Q505.78125 344.27814 505.54688 345.34064L504.70312 349.45L502.73438 349.45L503.59375 345.325Q503.79688 344.40314 503.79688 344.23126Q503.79688 343.85626 503.5625 343.6375Q503.34375 343.41876 502.95312 343.41876Q502.51562 343.41876 501.98438 343.77814Q501.46875 344.1375 501.17188 344.7469Q500.95312 345.16876 500.67188 346.46564L500.04688 349.45L498.09375 349.45L499.60938 342.1844ZM507.54688 343.65314L507.85938 342.1844L508.8125 342.1844L509.04688 341.02814L511.29688 339.66876L510.76562 342.1844L511.96875 342.1844L511.67188 343.65314L510.46875 343.65314L509.82812 346.6844Q509.65625 347.5125 509.65625 347.6375Q509.65625 347.85626 509.79688 347.98126Q509.95312 348.10626 510.32812 348.10626Q510.45312 348.10626 510.96875 348.0594L510.65625 349.5125Q510.15625 349.6219 509.625 349.6219Q508.57812 349.6219 508.10938 349.23126Q507.64062 348.825 507.64062 348.10626Q507.64062 347.77814 507.89062 346.5594L508.5 343.65314L507.54688 343.65314ZM511.8125 347.41876L513.7031 347.1219Q513.96875 347.71564 514.34375 347.96564Q514.71875 348.21564 515.3594 348.21564Q516.03125 348.21564 516.4375 347.91876Q516.71875 347.71564 516.71875 347.41876Q516.71875 347.21564 516.5781 347.0594Q516.4219 346.91876 515.7656 346.7Q513.9844 346.10626 513.5625 345.7625Q512.8906 345.23126 512.8906 344.3719Q512.8906 343.5125 513.53125 342.8875Q514.4375 342.0125 516.2031 342.0125Q517.59375 342.0125 518.3125 342.52814Q519.03125 343.04376 519.21875 343.91876L517.40625 344.23126Q517.2656 343.84064 516.9531 343.6375Q516.5156 343.3719 515.8906 343.3719Q515.28125 343.3719 515.0 343.575Q514.7344 343.77814 514.7344 344.04376Q514.7344 344.325 515.0156 344.4969Q515.1875 344.60626 516.1094 344.8875Q517.5469 345.29376 518.03125 345.7Q518.71875 346.27814 518.71875 347.075Q518.71875 348.10626 517.84375 348.8719Q516.9844 349.6219 515.40625 349.6219Q513.8281 349.6219 512.96875 349.04376Q512.1094 348.46564 511.8125 347.41876Z" fill-rule="nonzero"/><path fill="#000000" d="M26.190638 206.02708L26.190638 201.54271L30.503138 202.44896Q31.003138 203.24583 31.362513 204.40208Q31.721888 205.54271 31.721888 206.74583Q31.721888 208.60521 30.878138 209.58958Q29.737513 210.94896 27.550013 210.94896Q26.081263 210.94896 24.753138 210.37083Q23.128138 209.66771 22.253138 208.38646Q21.362513 207.08958 21.362513 205.35521Q21.362513 203.62083 22.175013 202.57396Q22.971888 201.52708 24.518763 201.18333L24.737513 203.10521Q23.893763 203.35521 23.456263 203.91771Q23.018763 204.48021 23.018763 205.33958Q23.018763 206.33958 23.550013 207.18333Q24.065638 208.01146 25.159388 208.48021Q26.237513 208.94896 27.518763 208.94896Q28.784388 208.94896 29.393763 208.38646Q30.003138 207.80833 30.003138 206.69896Q30.003138 206.02708 29.815638 205.33958Q29.628138 204.63646 29.362513 204.13646L27.878138 203.82396L27.878138 206.38646L26.190638 206.02708ZM21.534388 198.52708L21.534388 196.57396L23.300013 196.93333L23.300013 198.90208L21.534388 198.52708ZM24.284388 199.10521L24.284388 197.13646L31.550013 198.66771L31.550013 200.62083L24.284388 199.10521ZM31.940638 196.73021L32.23751 194.65208Q32.55001 194.65208 32.70626 194.55833Q32.86251 194.44896 32.971886 194.23021Q33.096886 193.99583 33.096886 193.58958Q33.096886 192.96458 32.846886 192.58958Q32.659386 192.30833 32.23751 192.13646Q31.971888 192.02708 31.065638 191.85521L30.721888 191.79271Q31.581263 192.80833 31.581263 193.90208Q31.581263 194.96458 30.831263 195.65208Q30.065638 196.32396 28.628138 196.32396Q27.346888 196.32396 26.284388 195.87083Q25.206263 195.40208 24.659388 194.55833Q24.112513 193.71458 24.112513 192.83958Q24.112513 192.12083 24.503138 191.52708Q24.878138 190.91771 25.581263 190.57396L24.284388 190.30833L24.284388 188.46458L30.346888 189.73021Q31.800013 190.02708 32.409386 190.24583Q33.034386 190.44896 33.409386 190.73021Q33.784386 190.99583 34.034386 191.41771Q34.284386 191.83958 34.39376 192.40208Q34.503136 192.96458 34.503136 193.63646Q34.503136 195.16771 33.971886 195.96458Q33.440636 196.74583 32.221886 196.74583Q32.096886 196.74583 31.940638 196.73021ZM28.425013 194.41771Q29.253138 194.41771 29.690638 194.04271Q30.128138 193.66771 30.128138 193.10521Q30.128138 192.58958 29.737513 192.12083Q29.346888 191.63646 28.628138 191.38646Q27.909388 191.12083 27.237513 191.12083Q26.456263 191.12083 25.987513 191.54271Q25.518763 191.94896 25.518763 192.49583Q25.518763 193.02708 25.940638 193.46458Q26.346888 193.90208 27.221888 194.19896Q27.893763 194.41771 28.425013 194.41771ZM26.346888 185.85521L26.190638 187.76146Q25.206263 187.43333 24.659388 186.62083Q24.112513 185.80833 24.112513 184.46458Q24.112513 183.05833 24.690638 182.38646Q25.253138 181.71458 26.065638 181.71458Q26.393763 181.71458 26.768763 181.77708Q27.128138 181.83958 28.706263 182.18333Q30.003138 182.46458 30.518763 182.46458Q30.987513 182.46458 31.550013 182.30833L31.550013 184.21458Q31.159388 184.32396 30.721888 184.35521Q31.206263 184.79271 31.471888 185.35521Q31.721888 185.90208 31.721888 186.48021Q31.721888 187.37083 31.128138 187.96458Q30.534388 188.55833 29.612513 188.55833Q28.565638 188.55833 27.956263 187.91771Q27.331263 187.26146 27.190638 185.60521Q27.081263 184.19896 26.909388 183.73021Q26.503138 183.60521 26.253138 183.60521Q25.940638 183.60521 25.737513 183.85521Q25.518763 184.10521 25.518763 184.60521Q25.518763 185.13646 25.737513 185.44896Q25.956263 185.74583 26.346888 185.85521ZM28.159388 183.98021Q28.206263 184.16771 28.253138 184.46458Q28.425013 185.93333 28.768763 186.38646Q29.018763 186.71458 29.440638 186.71458Q29.784388 186.71458 30.018763 186.46458Q30.253138 186.21458 30.253138 185.80833Q30.253138 185.37083 30.034388 184.98021Q29.815638 184.58958 29.487513 184.40208Q29.143763 184.19896 28.425013 184.04271L28.159388 183.98021ZM31.550013 176.68333L21.534388 174.58958L21.534388 172.62083L24.878138 173.32396Q24.471888 172.77708 24.300013 172.30833Q24.112513 171.83958 24.112513 171.29271Q24.112513 170.13646 24.893763 169.44896Q25.659388 168.76146 27.128138 168.76146Q28.112513 168.76146 29.050013 169.08958Q29.987513 169.41771 30.581263 169.96458Q31.159388 170.49583 31.440638 171.10521Q31.721888 171.69896 31.721888 172.35521Q31.721888 173.90208 30.346888 174.63646L31.550013 174.88646L31.550013 176.68333ZM28.596888 174.02708Q29.315638 174.02708 29.784388 173.62083Q30.237513 173.19896 30.237513 172.63646Q30.237513 172.15208 29.878138 171.71458Q29.518763 171.26146 28.753138 170.96458Q27.971888 170.66771 27.175013 170.66771Q26.409388 170.66771 25.971888 171.07396Q25.518763 171.46458 25.518763 172.02708Q25.518763 172.76146 26.206263 173.29271Q27.143763 174.02708 28.596888 174.02708ZM21.534388 165.52708L21.534388 163.57396L23.300013 163.93333L23.300013 165.90208L21.534388 165.52708ZM24.284388 166.10521L24.284388 164.13646L31.550013 165.66771L31.550013 167.62083L24.284388 166.10521ZM25.753138 163.13646L24.284388 162.82396L24.284388 161.87083L23.128138 161.63646L21.768763 159.38646L24.284388 159.91771L24.284388 158.71458L25.753138 159.01146L25.753138 160.21458L28.784388 160.85521Q29.612513 161.02708 29.737513 161.02708Q29.956263 161.02708 30.081263 160.88646Q30.206263 160.73021 30.206263 160.35521Q30.206263 160.23021 30.159388 159.71458L31.612513 160.02708Q31.721888 160.52708 31.721888 161.05833Q31.721888 162.10521 31.331263 162.57396Q30.925013 163.04271 30.206263 163.04271Q29.878138 163.04271 28.659388 162.79271L25.753138 162.18333L25.753138 163.13646ZM31.721888 159.79271L21.362513 154.82396L21.362513 153.46458L31.721888 158.41771L31.721888 159.79271ZM29.518763 154.87083L29.221888 152.98021Q29.815638 152.71458 30.065638 152.33958Q30.315638 151.96458 30.315638 151.32396Q30.315638 150.65208 30.018763 150.24583Q29.815638 149.96458 29.518763 149.96458Q29.315638 149.96458 29.159388 150.10521Q29.018763 150.26146 28.800013 150.91771Q28.206263 152.69896 27.862513 153.12083Q27.331263 153.79271 26.471888 153.79271Q25.612513 153.79271 24.987513 153.15208Q24.112513 152.24583 24.112513 150.48021Q24.112513 149.08958 24.628138 148.37083Q25.143763 147.65208 26.018763 147.46458L26.331263 149.27708Q25.940638 149.41771 25.737513 149.73021Q25.471888 150.16771 25.471888 150.79271Q25.471888 151.40208 25.675013 151.68333Q25.878138 151.94896 26.143763 151.94896Q26.425013 151.94896 26.596888 151.66771Q26.706263 151.49583 26.987513 150.57396Q27.393763 149.13646 27.800013 148.65208Q28.378138 147.96458 29.175013 147.96458Q30.206263 147.96458 30.971888 148.83958Q31.721888 149.69896 31.721888 151.27708Q31.721888 152.85521 31.143763 153.71458Q30.565638 154.57396 29.518763 154.87083Z" fill-rule="nonzero"/><path fill="#000000" d="M70.05 295.21564Q70.05 293.6844 70.3625 292.7625Q70.675 291.825 71.28438 291.325Q71.90938 290.825 72.84688 290.825Q73.53438 290.825 74.05 291.10626Q74.58125 291.3875 74.925 291.91876Q75.26875 292.4344 75.45625 293.1844Q75.64375 293.9344 75.64375 295.21564Q75.64375 296.73126 75.33125 297.65314Q75.03438 298.575 74.40938 299.09064Q73.8 299.59064 72.84688 299.59064Q71.6125 299.59064 70.89375 298.7Q70.05 297.6375 70.05 295.21564ZM71.12813 295.21564Q71.12813 297.325 71.62813 298.02814Q72.12813 298.73126 72.84688 298.73126Q73.58125 298.73126 74.06563 298.02814Q74.56563 297.325 74.56563 295.21564Q74.56563 293.09064 74.06563 292.40314Q73.58125 291.7 72.83125 291.7Q72.1125 291.7 71.675 292.3094Q71.12813 293.09064 71.12813 295.21564Z" fill-rule="nonzero"/><path fill="#000000" d="M75.59688 237.55104L75.59688 238.56667L69.90938 238.56667Q69.90938 238.19167 70.03438 237.83229Q70.25313 237.25417 70.72188 236.69167Q71.20625 236.12917 72.1125 235.39479Q73.51875 234.23854 74.00313 233.56667Q74.50313 232.89479 74.50313 232.30104Q74.50313 231.67604 74.05 231.25417Q73.59688 230.81667 72.87813 230.81667Q72.1125 230.81667 71.65938 231.26979Q71.20625 231.72292 71.19063 232.53542L70.1125 232.42604Q70.22188 231.20729 70.94063 230.58229Q71.675 229.94167 72.90938 229.94167Q74.14375 229.94167 74.8625 230.62917Q75.58125 231.31667 75.58125 232.33229Q75.58125 232.84792 75.3625 233.34792Q75.15938 233.83229 74.65938 234.39479Q74.175 234.94167 73.05 235.89479Q72.09688 236.69167 71.81563 236.98854Q71.55 237.26979 71.37813 237.55104L75.59688 237.55104Z" fill-rule="nonzero"/><path fill="#000000" d="M73.425 177.68333L73.425 175.62083L69.70625 175.62083L69.70625 174.65208L73.62813 169.08958L74.4875 169.08958L74.4875 174.65208L75.64375 174.65208L75.64375 175.62083L74.4875 175.62083L74.4875 177.68333L73.425 177.68333ZM73.425 174.65208L73.425 170.79271L70.7375 174.65208L73.425 174.65208Z" fill-rule="nonzero"/><path fill="#000000" d="M75.51875 110.31563L74.47188 110.39375Q74.33125 109.76875 74.08125 109.4875Q73.64375 109.03438 73.01875 109.03438Q72.51875 109.03438 72.12813 109.31563Q71.64375 109.69063 71.34688 110.39375Q71.06563 111.08125 71.05 112.3625Q71.425 111.78438 71.97188 111.50313Q72.53438 111.22188 73.14375 111.22188Q74.19063 111.22188 74.925 112.00313Q75.675 112.78438 75.675 114.00313Q75.675 114.81563 75.31563 115.51875Q74.97188 116.20625 74.3625 116.58125Q73.75313 116.94063 72.9875 116.94063Q71.65938 116.94063 70.83125 115.97188Q70.00313 115.00313 70.00313 112.78438Q70.00313 110.28438 70.925 109.15938Q71.72188 108.175 73.08125 108.175Q74.09688 108.175 74.7375 108.75313Q75.39375 109.31563 75.51875 110.31563ZM71.22188 114.01875Q71.22188 114.56563 71.44063 115.06563Q71.675 115.55 72.08125 115.81563Q72.50313 116.08125 72.97188 116.08125Q73.62813 116.08125 74.1125 115.55Q74.59688 115.00313 74.59688 114.08125Q74.59688 113.19063 74.1125 112.675Q73.64375 112.15938 72.925 112.15938Q72.20625 112.15938 71.70625 112.675Q71.22188 113.19063 71.22188 114.01875Z" fill-rule="nonzero"/><path fill="#000000" d="M71.675 51.260418Q71.01875 51.010418 70.69063 50.572918Q70.37813 50.119793 70.37813 49.510418Q70.37813 48.572918 71.05 47.932293Q71.7375 47.291668 72.84688 47.291668Q73.97188 47.291668 74.65938 47.947918Q75.34688 48.604168 75.34688 49.541668Q75.34688 50.135418 75.03438 50.572918Q74.72188 51.010418 74.08125 51.260418Q74.87813 51.510418 75.28438 52.088543Q75.69063 52.666668 75.69063 53.463543Q75.69063 54.557293 74.90938 55.307293Q74.14375 56.057293 72.8625 56.057293Q71.59688 56.057293 70.81563 55.307293Q70.03438 54.557293 70.03438 53.432293Q70.03438 52.588543 70.45625 52.026043Q70.89375 51.463543 71.675 51.260418ZM71.45625 49.463543Q71.45625 50.072918 71.84688 50.463543Q72.25313 50.854168 72.87813 50.854168Q73.4875 50.854168 73.87813 50.479168Q74.26875 50.088543 74.26875 49.526043Q74.26875 48.947918 73.8625 48.557293Q73.45625 48.151043 72.8625 48.151043Q72.25313 48.151043 71.84688 48.541668Q71.45625 48.932293 71.45625 49.463543ZM71.12813 53.432293Q71.12813 53.885418 71.33125 54.307293Q71.55 54.729168 71.97188 54.963543Q72.39375 55.197918 72.87813 55.197918Q73.62813 55.197918 74.1125 54.713543Q74.6125 54.229168 74.6125 53.479168Q74.6125 52.713543 74.1125 52.213543Q73.6125 51.713543 72.84688 51.713543Q72.09688 51.713543 71.6125 52.213543Q71.12813 52.697918 71.12813 53.432293Z" fill-rule="nonzero"/><path fill="#000000" d="M160.44615 312.45L159.39928 312.45L159.39928 305.73126Q159.00865 306.09064 158.38365 306.46564Q157.77428 306.825 157.2899 306.9969L157.2899 305.98126Q158.1649 305.5594 158.82115 304.98126Q159.49303 304.3875 159.77428 303.825L160.44615 303.825L160.44615 312.45ZM163.4774 308.21564Q163.4774 306.6844 163.7899 305.7625Q164.1024 304.825 164.71178 304.325Q165.33678 303.825 166.27428 303.825Q166.96178 303.825 167.4774 304.10626Q168.00865 304.3875 168.3524 304.91876Q168.69615 305.4344 168.88365 306.1844Q169.07115 306.9344 169.07115 308.21564Q169.07115 309.73126 168.75865 310.65314Q168.46178 311.575 167.83678 312.09064Q167.2274 312.59064 166.27428 312.59064Q165.0399 312.59064 164.32115 311.7Q163.4774 310.6375 163.4774 308.21564ZM164.55553 308.21564Q164.55553 310.325 165.05553 311.02814Q165.55553 311.73126 166.27428 311.73126Q167.00865 311.73126 167.49303 311.02814Q167.99303 310.325 167.99303 308.21564Q167.99303 306.09064 167.49303 305.40314Q167.00865 304.7 166.25865 304.7Q165.5399 304.7 165.1024 305.3094Q164.55553 306.09064 164.55553 308.21564Z" fill-rule="nonzero"/><path fill="#000000" d="M262.55853 311.4344L262.55853 312.45L256.87103 312.45Q256.87103 312.075 256.99603 311.71564Q257.21478 311.1375 257.68353 310.575Q258.1679 310.0125 259.07416 309.27814Q260.4804 308.1219 260.96478 307.45Q261.46478 306.77814 261.46478 306.1844Q261.46478 305.5594 261.01166 305.1375Q260.55853 304.7 259.83978 304.7Q259.07416 304.7 258.62103 305.15314Q258.1679 305.60626 258.15228 306.41876L257.07416 306.3094Q257.18353 305.09064 257.90228 304.46564Q258.63666 303.825 259.87103 303.825Q261.1054 303.825 261.82416 304.5125Q262.5429 305.2 262.5429 306.21564Q262.5429 306.73126 262.32416 307.23126Q262.12103 307.71564 261.62103 308.27814Q261.13666 308.825 260.01166 309.77814Q259.05853 310.575 258.77728 310.8719Q258.51166 311.15314 258.33978 311.4344L262.55853 311.4344ZM264.01166 308.21564Q264.01166 306.6844 264.32416 305.7625Q264.63666 304.825 265.24603 304.325Q265.87103 303.825 266.80853 303.825Q267.49603 303.825 268.01166 304.10626Q268.5429 304.3875 268.88666 304.91876Q269.2304 305.4344 269.4179 306.1844Q269.6054 306.9344 269.6054 308.21564Q269.6054 309.73126 269.2929 310.65314Q268.99603 311.575 268.37103 312.09064Q267.76166 312.59064 266.80853 312.59064Q265.57416 312.59064 264.8554 311.7Q264.01166 310.6375 264.01166 308.21564ZM265.08978 308.21564Q265.08978 310.325 265.58978 311.02814Q266.08978 311.73126 266.80853 311.73126Q267.5429 311.73126 268.02728 311.02814Q268.52728 310.325 268.52728 308.21564Q268.52728 306.09064 268.02728 305.40314Q267.5429 304.7 266.7929 304.7Q266.07416 304.7 265.63666 305.3094Q265.08978 306.09064 265.08978 308.21564Z" fill-rule="nonzero"/><path fill="#000000" d="M357.5459 310.1844L358.6084 310.04376Q358.78027 310.9344 359.21777 311.34064Q359.65527 311.73126 360.28027 311.73126Q361.03027 311.73126 361.5459 311.21564Q362.06152 310.7 362.06152 309.9344Q362.06152 309.21564 361.57715 308.7469Q361.1084 308.2625 360.37402 308.2625Q360.07715 308.2625 359.62402 308.3875L359.74902 307.45Q359.8584 307.46564 359.9209 307.46564Q360.59277 307.46564 361.12402 307.1219Q361.6709 306.7625 361.6709 306.02814Q361.6709 305.45 361.28027 305.075Q360.88965 304.6844 360.26465 304.6844Q359.65527 304.6844 359.2334 305.075Q358.82715 305.46564 358.71777 306.23126L357.65527 306.04376Q357.84277 304.9969 358.53027 304.41876Q359.21777 303.825 360.2334 303.825Q360.93652 303.825 361.53027 304.1375Q362.12402 304.4344 362.43652 304.95Q362.74902 305.46564 362.74902 306.0594Q362.74902 306.60626 362.45215 307.075Q362.15527 307.52814 361.57715 307.79376Q362.32715 307.96564 362.74902 308.52814Q363.1709 309.075 363.1709 309.91876Q363.1709 311.04376 362.34277 311.825Q361.53027 312.60626 360.28027 312.60626Q359.15527 312.60626 358.40527 311.9344Q357.65527 311.2469 357.5459 310.1844ZM364.5459 308.21564Q364.5459 306.6844 364.8584 305.7625Q365.1709 304.825 365.78027 304.325Q366.40527 303.825 367.34277 303.825Q368.03027 303.825 368.5459 304.10626Q369.07715 304.3875 369.4209 304.91876Q369.76465 305.4344 369.95215 306.1844Q370.13965 306.9344 370.13965 308.21564Q370.13965 309.73126 369.82715 310.65314Q369.53027 311.575 368.90527 312.09064Q368.2959 312.59064 367.34277 312.59064Q366.1084 312.59064 365.38965 311.7Q364.5459 310.6375 364.5459 308.21564ZM365.62402 308.21564Q365.62402 310.325 366.12402 311.02814Q366.62402 311.73126 367.34277 311.73126Q368.07715 311.73126 368.56152 311.02814Q369.06152 310.325 369.06152 308.21564Q369.06152 306.09064 368.56152 305.40314Q368.07715 304.7 367.32715 304.7Q366.6084 304.7 366.1709 305.3094Q365.62402 306.09064 365.62402 308.21564Z" fill-rule="nonzero"/><path fill="#000000" d="M461.45514 312.45L461.45514 310.3875L457.7364 310.3875L457.7364 309.41876L461.65826 303.85626L462.51764 303.85626L462.51764 309.41876L463.6739 309.41876L463.6739 310.3875L462.51764 310.3875L462.51764 312.45L461.45514 312.45ZM461.45514 309.41876L461.45514 305.5594L458.76764 309.41876L461.45514 309.41876ZM465.08014 308.21564Q465.08014 306.6844 465.39264 305.7625Q465.70514 304.825 466.3145 304.325Q466.9395 303.825 467.877 303.825Q468.5645 303.825 469.08014 304.10626Q469.6114 304.3875 469.95514 304.91876Q470.2989 305.4344 470.4864 306.1844Q470.6739 306.9344 470.6739 308.21564Q470.6739 309.73126 470.3614 310.65314Q470.0645 311.575 469.4395 312.09064Q468.83014 312.59064 467.877 312.59064Q466.64264 312.59064 465.9239 311.7Q465.08014 310.6375 465.08014 308.21564ZM466.15826 308.21564Q466.15826 310.325 466.65826 311.02814Q467.15826 311.73126 467.877 311.73126Q468.6114 311.73126 469.09576 311.02814Q469.59576 310.325 469.59576 308.21564Q469.59576 306.09064 469.09576 305.40314Q468.6114 304.7 467.8614 304.7Q467.14264 304.7 466.70514 305.3094Q466.15826 306.09064 466.15826 308.21564Z" fill-rule="nonzero"/><path fill="#000000" d="M558.6144 310.2L559.72375 310.10626Q559.84875 310.91876 560.28625 311.325Q560.7394 311.73126 561.38 311.73126Q562.13 311.73126 562.66125 311.15314Q563.1925 310.575 563.1925 309.6375Q563.1925 308.73126 562.6769 308.21564Q562.1769 307.6844 561.34875 307.6844Q560.84875 307.6844 560.4269 307.91876Q560.0206 308.15314 559.78625 308.5125L558.8019 308.3875L559.63 303.98126L563.91125 303.98126L563.91125 304.98126L560.47375 304.98126L560.0206 307.29376Q560.78625 306.7469 561.63 306.7469Q562.755 306.7469 563.5206 307.52814Q564.3019 308.3094 564.3019 309.54376Q564.3019 310.7 563.63 311.5594Q562.8019 312.59064 561.38 312.59064Q560.2081 312.59064 559.4581 311.9344Q558.72375 311.27814 558.6144 310.2ZM565.6144 308.21564Q565.6144 306.6844 565.9269 305.7625Q566.2394 304.825 566.84875 304.325Q567.47375 303.825 568.41125 303.825Q569.09875 303.825 569.6144 304.10626Q570.1456 304.3875 570.4894 304.91876Q570.8331 305.4344 571.0206 306.1844Q571.2081 306.9344 571.2081 308.21564Q571.2081 309.73126 570.8956 310.65314Q570.59875 311.575 569.97375 312.09064Q569.3644 312.59064 568.41125 312.59064Q567.1769 312.59064 566.4581 311.7Q565.6144 310.6375 565.6144 308.21564ZM566.6925 308.21564Q566.6925 310.325 567.1925 311.02814Q567.6925 311.73126 568.41125 311.73126Q569.1456 311.73126 569.63 311.02814Q570.13 310.325 570.13 308.21564Q570.13 306.09064 569.63 305.40314Q569.1456 304.7 568.3956 304.7Q567.6769 304.7 567.2394 305.3094Q566.6925 306.09064 566.6925 308.21564Z" fill-rule="nonzero"/><path fill="#000000" d="M664.6174 305.96564L663.5705 306.04376Q663.4299 305.41876 663.1799 305.1375Q662.7424 304.6844 662.1174 304.6844Q661.6174 304.6844 661.22675 304.96564Q660.7424 305.34064 660.4455 306.04376Q660.16425 306.73126 660.1486 308.0125Q660.5236 307.4344 661.0705 307.15314Q661.633 306.8719 662.2424 306.8719Q663.28925 306.8719 664.0236 307.65314Q664.7736 308.4344 664.7736 309.65314Q664.7736 310.46564 664.41425 311.16876Q664.0705 311.85626 663.4611 312.23126Q662.85175 312.59064 662.0861 312.59064Q660.758 312.59064 659.9299 311.6219Q659.10175 310.65314 659.10175 308.4344Q659.10175 305.9344 660.0236 304.8094Q660.8205 303.825 662.1799 303.825Q663.1955 303.825 663.8361 304.40314Q664.4924 304.96564 664.6174 305.96564ZM660.3205 309.66876Q660.3205 310.21564 660.53925 310.71564Q660.7736 311.2 661.1799 311.46564Q661.60175 311.73126 662.0705 311.73126Q662.72675 311.73126 663.2111 311.2Q663.6955 310.65314 663.6955 309.73126Q663.6955 308.84064 663.2111 308.325Q662.7424 307.8094 662.0236 307.8094Q661.3049 307.8094 660.8049 308.325Q660.3205 308.84064 660.3205 309.66876ZM666.1486 308.21564Q666.1486 306.6844 666.4611 305.7625Q666.7736 304.825 667.383 304.325Q668.008 303.825 668.9455 303.825Q669.633 303.825 670.1486 304.10626Q670.6799 304.3875 671.0236 304.91876Q671.3674 305.4344 671.5549 306.1844Q671.7424 306.9344 671.7424 308.21564Q671.7424 309.73126 671.4299 310.65314Q671.133 311.575 670.508 312.09064Q669.8986 312.59064 668.9455 312.59064Q667.7111 312.59064 666.9924 311.7Q666.1486 310.6375 666.1486 308.21564ZM667.22675 308.21564Q667.22675 310.325 667.72675 311.02814Q668.22675 311.73126 668.9455 311.73126Q669.6799 311.73126 670.16425 311.02814Q670.66425 310.325 670.66425 308.21564Q670.66425 306.09064 670.16425 305.40314Q669.6799 304.7 668.9299 304.7Q668.2111 304.7 667.7736 305.3094Q667.22675 306.09064 667.22675 308.21564Z" fill-rule="nonzero"/><path fill="#000000" d="M759.74536 304.98126L759.74536 303.96564L765.30786 303.96564L765.30786 304.79376Q764.49536 305.66876 763.68286 307.1219Q762.886 308.5594 762.4485 310.09064Q762.12036 311.16876 762.04224 312.45L760.9485 312.45Q760.9641 311.4344 761.3391 309.9969Q761.72974 308.5594 762.43286 307.23126Q763.1516 305.90314 763.9641 304.98126L759.74536 304.98126ZM766.68286 308.21564Q766.68286 306.6844 766.99536 305.7625Q767.30786 304.825 767.91724 304.325Q768.54224 303.825 769.47974 303.825Q770.16724 303.825 770.68286 304.10626Q771.2141 304.3875 771.55786 304.91876Q771.9016 305.4344 772.0891 306.1844Q772.2766 306.9344 772.2766 308.21564Q772.2766 309.73126 771.9641 310.65314Q771.66724 311.575 771.04224 312.09064Q770.43286 312.59064 769.47974 312.59064Q768.24536 312.59064 767.5266 311.7Q766.68286 310.6375 766.68286 308.21564ZM767.761 308.21564Q767.761 310.325 768.261 311.02814Q768.761 311.73126 769.47974 311.73126Q770.2141 311.73126 770.6985 311.02814Q771.1985 310.325 771.1985 308.21564Q771.1985 306.09064 770.6985 305.40314Q770.2141 304.7 769.4641 304.7Q768.74536 304.7 768.30786 305.3094Q767.761 306.09064 767.761 308.21564Z" fill-rule="nonzero"/><path fill="#4285f4" d="M113.0 19.55L119.0 25.55L113.0 31.55L107.0 25.55Z" fill-rule="nonzero"/><path fill="#1a1a1a" d="M127.875 29.55L127.875 20.95625L129.01562 20.95625L129.01562 25.221874L133.28125 20.95625L134.82812 20.95625L131.21875 24.440624L134.98438 29.55L133.48438 29.55L130.42188 25.20625L129.01562 26.565624L129.01562 29.55L127.875 29.55ZM139.85938 28.784374Q139.26562 29.284374 138.71875 29.4875Q138.1875 29.690624 137.5625 29.690624Q136.53125 29.690624 135.98438 29.190624Q135.4375 28.690624 135.4375 27.909374Q135.4375 27.45625 135.64062 27.08125Q135.84375 26.690624 136.1875 26.471874Q136.53125 26.2375 136.95312 26.128124Q137.25 26.034374 137.89062 25.95625Q139.15625 25.815624 139.76562 25.596874Q139.76562 25.378124 139.76562 25.33125Q139.76562 24.675 139.46875 24.409374Q139.0625 24.065624 138.26562 24.065624Q137.53125 24.065624 137.17188 24.33125Q136.8125 24.58125 136.64062 25.2375L135.60938 25.096874Q135.75 24.440624 136.07812 24.034374Q136.40625 23.628124 137.01562 23.409374Q137.625 23.190624 138.42188 23.190624Q139.21875 23.190624 139.71875 23.378124Q140.21875 23.565624 140.45312 23.846874Q140.6875 24.128124 140.78125 24.565624Q140.82812 24.83125 140.82812 25.534374L140.82812 26.940624Q140.82812 28.409374 140.89062 28.8Q140.96875 29.190624 141.17188 29.55L140.0625 29.55Q139.90625 29.221874 139.85938 28.784374ZM139.76562 26.425Q139.1875 26.659374 138.04688 26.83125Q137.39062 26.925 137.125 27.05Q136.85938 27.159374 136.70312 27.378124Q136.5625 27.596874 136.5625 27.878124Q136.5625 28.3 136.875 28.58125Q137.20312 28.8625 137.8125 28.8625Q138.42188 28.8625 138.89062 28.596874Q139.375 28.33125 139.59375 27.8625Q139.76562 27.503124 139.76562 26.815624L139.76562 26.425ZM143.04688 29.55L143.04688 24.14375L142.10938 24.14375L142.10938 23.33125L143.04688 23.33125L143.04688 22.659374Q143.04688 22.034374 143.15625 21.7375Q143.3125 21.315624 143.6875 21.065624Q144.07812 20.815624 144.76562 20.815624Q145.21875 20.815624 145.75 20.925L145.59375 21.83125Q145.26562 21.784374 144.96875 21.784374Q144.48438 21.784374 144.28125 21.9875Q144.09375 22.190624 144.09375 22.753124L144.09375 23.33125L145.3125 23.33125L145.3125 24.14375L144.09375 24.14375L144.09375 29.55L143.04688 29.55ZM145.79688 29.55L145.79688 20.95625L146.85938 20.95625L146.85938 25.8625L149.34375 23.33125L150.71875 23.33125L148.32812 25.628124L150.95312 29.55L149.65625 29.55L147.59375 26.3625L146.85938 27.08125L146.85938 29.55L145.79688 29.55ZM155.85938 28.784374Q155.26562 29.284374 154.71875 29.4875Q154.1875 29.690624 153.5625 29.690624Q152.53125 29.690624 151.98438 29.190624Q151.4375 28.690624 151.4375 27.909374Q151.4375 27.45625 151.64062 27.08125Q151.84375 26.690624 152.1875 26.471874Q152.53125 26.2375 152.95312 26.128124Q153.25 26.034374 153.89062 25.95625Q155.15625 25.815624 155.76562 25.596874Q155.76562 25.378124 155.76562 25.33125Q155.76562 24.675 155.46875 24.409374Q155.0625 24.065624 154.26562 24.065624Q153.53125 24.065624 153.17188 24.33125Q152.8125 24.58125 152.64062 25.2375L151.60938 25.096874Q151.75 24.440624 152.07812 24.034374Q152.40625 23.628124 153.01562 23.409374Q153.625 23.190624 154.42188 23.190624Q155.21875 23.190624 155.71875 23.378124Q156.21875 23.565624 156.45312 23.846874Q156.6875 24.128124 156.78125 24.565624Q156.82812 24.83125 156.82812 25.534374L156.82812 26.940624Q156.82812 28.409374 156.89062 28.8Q156.96875 29.190624 157.17188 29.55L156.0625 29.55Q155.90625 29.221874 155.85938 28.784374ZM155.76562 26.425Q155.1875 26.659374 154.04688 26.83125Q153.39062 26.925 153.125 27.05Q152.85938 27.159374 152.70312 27.378124Q152.5625 27.596874 152.5625 27.878124Q152.5625 28.3 152.875 28.58125Q153.20312 28.8625 153.8125 28.8625Q154.42188 28.8625 154.89062 28.596874Q155.375 28.33125 155.59375 27.8625Q155.76562 27.503124 155.76562 26.815624L155.76562 26.425ZM161.92188 29.55L161.92188 20.95625L163.07812 20.95625L167.59375 27.70625L167.59375 20.95625L168.6875 20.95625L168.6875 29.55L167.51562 29.55L163.0 22.8L163.0 29.55L161.92188 29.55ZM177.85938 27.26875L178.89062 27.409374Q178.71875 28.471874 178.01562 29.08125Q177.3125 29.690624 176.29688 29.690624Q175.01562 29.690624 174.23438 28.8625Q173.46875 28.01875 173.46875 26.45625Q173.46875 25.45625 173.79688 24.70625Q174.14062 23.940624 174.8125 23.565624Q175.5 23.190624 176.3125 23.190624Q177.3125 23.190624 177.95312 23.70625Q178.60938 24.20625 178.79688 25.159374L177.76562 25.315624Q177.625 24.690624 177.25 24.378124Q176.875 24.05 176.34375 24.05Q175.54688 24.05 175.04688 24.628124Q174.54688 25.190624 174.54688 26.425Q174.54688 27.690624 175.03125 28.253124Q175.51562 28.815624 176.28125 28.815624Q176.90625 28.815624 177.3125 28.440624Q177.73438 28.065624 177.85938 27.26875ZM179.40625 26.440624Q179.40625 24.70625 180.35938 23.878124Q181.15625 23.190624 182.3125 23.190624Q183.59375 23.190624 184.40625 24.034374Q185.23438 24.8625 185.23438 26.346874Q185.23438 27.55 184.875 28.2375Q184.51562 28.925 183.8125 29.315624Q183.125 29.690624 182.3125 29.690624Q181.01562 29.690624 180.20312 28.8625Q179.40625 28.01875 179.40625 26.440624ZM180.48438 26.440624Q180.48438 27.628124 181.0 28.221874Q181.53125 28.815624 182.3125 28.815624Q183.10938 28.815624 183.625 28.221874Q184.14062 27.628124 184.14062 26.409374Q184.14062 25.253124 183.60938 24.659374Q183.09375 24.065624 182.3125 24.065624Q181.53125 24.065624 181.0 24.659374Q180.48438 25.2375 180.48438 26.440624ZM186.79688 29.55L186.79688 23.33125L187.73438 23.33125L187.73438 24.20625Q188.42188 23.190624 189.71875 23.190624Q190.28125 23.190624 190.75 23.39375Q191.23438 23.596874 191.46875 23.925Q191.70312 24.253124 191.79688 24.690624Q191.84375 24.9875 191.84375 25.721874L191.84375 29.55L190.79688 29.55L190.79688 25.76875Q190.79688 25.1125 190.67188 24.8Q190.54688 24.4875 190.23438 24.3Q189.92188 24.096874 189.5 24.096874Q188.82812 24.096874 188.32812 24.534374Q187.84375 24.95625 187.84375 26.14375L187.84375 29.55L186.79688 29.55ZM193.375 27.690624L194.40625 27.534374Q194.5 28.159374 194.89062 28.4875Q195.29688 28.815624 196.03125 28.815624Q196.75 28.815624 197.09375 28.534374Q197.45312 28.2375 197.45312 27.83125Q197.45312 27.471874 197.14062 27.26875Q196.92188 27.128124 196.0625 26.909374Q194.90625 26.6125 194.45312 26.409374Q194.01562 26.190624 193.78125 25.815624Q193.54688 25.440624 193.54688 24.971874Q193.54688 24.565624 193.73438 24.20625Q193.92188 23.846874 194.25 23.6125Q194.5 23.440624 194.92188 23.315624Q195.34375 23.190624 195.84375 23.190624Q196.5625 23.190624 197.10938 23.409374Q197.67188 23.6125 197.9375 23.971874Q198.20312 24.33125 198.29688 24.925L197.26562 25.065624Q197.20312 24.596874 196.85938 24.33125Q196.53125 24.05 195.90625 24.05Q195.1875 24.05 194.875 24.3Q194.5625 24.534374 194.5625 24.8625Q194.5625 25.065624 194.6875 25.221874Q194.82812 25.39375 195.09375 25.503124Q195.25 25.565624 196.03125 25.76875Q197.15625 26.08125 197.59375 26.26875Q198.03125 26.45625 198.28125 26.815624Q198.53125 27.175 198.53125 27.721874Q198.53125 28.253124 198.21875 28.721874Q197.92188 29.175 197.34375 29.440624Q196.76562 29.690624 196.03125 29.690624Q194.8125 29.690624 194.17188 29.190624Q193.54688 28.675 193.375 27.690624ZM204.875 29.55L204.875 28.628124Q204.14062 29.690624 202.89062 29.690624Q202.34375 29.690624 201.85938 29.4875Q201.39062 29.26875 201.15625 28.95625Q200.92188 28.628124 200.82812 28.159374Q200.76562 27.8625 200.76562 27.175L200.76562 23.33125L201.82812 23.33125L201.82812 26.784374Q201.82812 27.596874 201.89062 27.89375Q201.98438 28.3 202.29688 28.55Q202.625 28.784374 203.10938 28.784374Q203.57812 28.784374 203.98438 28.55Q204.40625 28.3 204.57812 27.878124Q204.76562 27.45625 204.76562 26.659374L204.76562 23.33125L205.8125 23.33125L205.8125 29.55L204.875 29.55ZM207.79688 29.55L207.79688 23.33125L208.73438 23.33125L208.73438 24.20625Q209.03125 23.7375 209.51562 23.471874Q210.0 23.190624 210.625 23.190624Q211.3125 23.190624 211.75 23.471874Q212.20312 23.753124 212.375 24.26875Q213.125 23.190624 214.29688 23.190624Q215.23438 23.190624 215.71875 23.70625Q216.21875 24.20625 216.21875 25.284374L216.21875 29.55L215.17188 29.55L215.17188 25.628124Q215.17188 25.003124 215.0625 24.721874Q214.96875 24.440624 214.70312 24.26875Q214.4375 24.096874 214.0625 24.096874Q213.40625 24.096874 212.96875 24.534374Q212.54688 24.971874 212.54688 25.940624L212.54688 29.55L211.48438 29.55L211.48438 25.503124Q211.48438 24.8 211.21875 24.45625Q210.96875 24.096874 210.39062 24.096874Q209.9375 24.096874 209.5625 24.33125Q209.1875 24.565624 209.01562 25.01875Q208.84375 25.471874 208.84375 26.315624L208.84375 29.55L207.79688 29.55ZM223.04688 27.55L224.14062 27.675Q223.89062 28.628124 223.1875 29.159374Q222.48438 29.690624 221.40625 29.690624Q220.04688 29.690624 219.23438 28.846874Q218.4375 28.003124 218.4375 26.4875Q218.4375 24.925 219.25 24.065624Q220.0625 23.190624 221.34375 23.190624Q222.59375 23.190624 223.375 24.034374Q224.17188 24.878124 224.17188 26.425Q224.17188 26.51875 224.17188 26.70625L219.53125 26.70625Q219.59375 27.7375 220.10938 28.284374Q220.625 28.815624 221.40625 28.815624Q221.98438 28.815624 222.39062 28.51875Q222.8125 28.20625 223.04688 27.55ZM219.59375 25.846874L223.0625 25.846874Q223.0 25.05 222.67188 24.659374Q222.15625 24.05 221.35938 24.05Q220.625 24.05 220.125 24.534374Q219.64062 25.01875 219.59375 25.846874ZM225.78125 29.55L225.78125 23.33125L226.73438 23.33125L226.73438 24.26875Q227.09375 23.6125 227.39062 23.409374Q227.70312 23.190624 228.07812 23.190624Q228.60938 23.190624 229.15625 23.51875L228.79688 24.503124Q228.40625 24.26875 228.03125 24.26875Q227.67188 24.26875 227.39062 24.4875Q227.125 24.690624 227.01562 25.065624Q226.82812 25.628124 226.82812 26.284374L226.82812 29.55L225.78125 29.55ZM232.59375 30.065624L233.625 30.221874Q233.6875 30.690624 233.98438 30.909374Q234.375 31.20625 235.04688 31.20625Q235.78125 31.20625 236.17188 30.909374Q236.57812 30.6125 236.71875 30.096874Q236.8125 29.76875 236.79688 28.7375Q236.10938 29.55 235.07812 29.55Q233.79688 29.55 233.09375 28.628124Q232.39062 27.690624 232.39062 26.409374Q232.39062 25.51875 232.70312 24.76875Q233.03125 24.003124 233.64062 23.596874Q234.25 23.190624 235.07812 23.190624Q236.1875 23.190624 236.90625 24.08125L236.90625 23.33125L237.875 23.33125L237.875 28.70625Q237.875 30.159374 237.57812 30.76875Q237.28125 31.378124 236.64062 31.721874Q236.0 32.08125 235.0625 32.08125Q233.95312 32.08125 233.26562 31.58125Q232.57812 31.08125 232.59375 30.065624ZM233.46875 26.33125Q233.46875 27.55 233.95312 28.1125Q234.4375 28.675 235.17188 28.675Q235.90625 28.675 236.39062 28.1125Q236.89062 27.55 236.89062 26.3625Q236.89062 25.221874 236.375 24.64375Q235.875 24.065624 235.15625 24.065624Q234.45312 24.065624 233.95312 24.64375Q233.46875 25.20625 233.46875 26.33125ZM239.78125 29.55L239.78125 23.33125L240.73438 23.33125L240.73438 24.26875Q241.09375 23.6125 241.39062 23.409374Q241.70312 23.190624 242.07812 23.190624Q242.60938 23.190624 243.15625 23.51875L242.79688 24.503124Q242.40625 24.26875 242.03125 24.26875Q241.67188 24.26875 241.39062 24.4875Q241.125 24.690624 241.01562 25.065624Q240.82812 25.628124 240.82812 26.284374L240.82812 29.55L239.78125 29.55ZM243.40625 26.440624Q243.40625 24.70625 244.35938 23.878124Q245.15625 23.190624 246.3125 23.190624Q247.59375 23.190624 248.40625 24.034374Q249.23438 24.8625 249.23438 26.346874Q249.23438 27.55 248.875 28.2375Q248.51562 28.925 247.8125 29.315624Q247.125 29.690624 246.3125 29.690624Q245.01562 29.690624 244.20312 28.8625Q243.40625 28.01875 243.40625 26.440624ZM244.48438 26.440624Q244.48438 27.628124 245.0 28.221874Q245.53125 28.815624 246.3125 28.815624Q247.10938 28.815624 247.625 28.221874Q248.14062 27.628124 248.14062 26.409374Q248.14062 25.253124 247.60938 24.659374Q247.09375 24.065624 246.3125 24.065624Q245.53125 24.065624 245.0 24.659374Q244.48438 25.2375 244.48438 26.440624ZM254.875 29.55L254.875 28.628124Q254.14062 29.690624 252.89062 29.690624Q252.34375 29.690624 251.85938 29.4875Q251.39062 29.26875 251.15625 28.95625Q250.92188 28.628124 250.82812 28.159374Q250.76562 27.8625 250.76562 27.175L250.76562 23.33125L251.82812 23.33125L251.82812 26.784374Q251.82812 27.596874 251.89062 27.89375Q251.98438 28.3 252.29688 28.55Q252.625 28.784374 253.10938 28.784374Q253.57812 28.784374 253.98438 28.55Q254.40625 28.3 254.57812 27.878124Q254.76562 27.45625 254.76562 26.659374L254.76562 23.33125L255.8125 23.33125L255.8125 29.55L254.875 29.55ZM257.79688 31.940624L257.79688 23.33125L258.75 23.33125L258.75 24.128124Q259.09375 23.659374 259.51562 23.425Q259.95312 23.190624 260.5625 23.190624Q261.35938 23.190624 261.96875 23.596874Q262.57812 24.003124 262.875 24.753124Q263.1875 25.503124 263.1875 26.39375Q263.1875 27.346874 262.84375 28.1125Q262.51562 28.878124 261.85938 29.284374Q261.20312 29.690624 260.48438 29.690624Q259.95312 29.690624 259.53125 29.471874Q259.10938 29.2375 258.84375 28.909374L258.84375 31.940624L257.79688 31.940624ZM258.75 26.471874Q258.75 27.675 259.23438 28.253124Q259.71875 28.815624 260.40625 28.815624Q261.10938 28.815624 261.60938 28.221874Q262.10938 27.628124 262.10938 26.378124Q262.10938 25.190624 261.625 24.6125Q261.14062 24.01875 260.45312 24.01875Q259.78125 24.01875 259.26562 24.64375Q258.75 25.26875 258.75 26.471874ZM264.375 27.690624L265.40625 27.534374Q265.5 28.159374 265.89062 28.4875Q266.29688 28.815624 267.03125 28.815624Q267.75 28.815624 268.09375 28.534374Q268.45312 28.2375 268.45312 27.83125Q268.45312 27.471874 268.14062 27.26875Q267.92188 27.128124 267.0625 26.909374Q265.90625 26.6125 265.45312 26.409374Q265.01562 26.190624 264.78125 25.815624Q264.54688 25.440624 264.54688 24.971874Q264.54688 24.565624 264.73438 24.20625Q264.92188 23.846874 265.25 23.6125Q265.5 23.440624 265.92188 23.315624Q266.34375 23.190624 266.84375 23.190624Q267.5625 23.190624 268.10938 23.409374Q268.67188 23.6125 268.9375 23.971874Q269.20312 24.33125 269.29688 24.925L268.26562 25.065624Q268.20312 24.596874 267.85938 24.33125Q267.53125 24.05 266.90625 24.05Q266.1875 24.05 265.875 24.3Q265.5625 24.534374 265.5625 24.8625Q265.5625 25.065624 265.6875 25.221874Q265.82812 25.39375 266.09375 25.503124Q266.25 25.565624 267.03125 25.76875Q268.15625 26.08125 268.59375 26.26875Q269.03125 26.45625 269.28125 26.815624Q269.53125 27.175 269.53125 27.721874Q269.53125 28.253124 269.21875 28.721874Q268.92188 29.175 268.34375 29.440624Q267.76562 29.690624 267.03125 29.690624Q265.8125 29.690624 265.17188 29.190624Q264.54688 28.675 264.375 27.690624Z" fill-rule="nonzero"/><path fill="#ea4335" d="M293.0 19.55L299.0 25.55L293.0 31.55L287.0 25.55Z" fill-rule="nonzero"/><path fill="#1a1a1a" d="M307.875 29.55L307.875 20.95625L309.01562 20.95625L309.01562 25.221874L313.28125 20.95625L314.82812 20.95625L311.21875 24.440624L314.98438 29.55L313.48438 29.55L310.42188 25.20625L309.01562 26.565624L309.01562 29.55L307.875 29.55ZM319.85938 28.784374Q319.26562 29.284374 318.71875 29.4875Q318.1875 29.690624 317.5625 29.690624Q316.53125 29.690624 315.98438 29.190624Q315.4375 28.690624 315.4375 27.909374Q315.4375 27.45625 315.64062 27.08125Q315.84375 26.690624 316.1875 26.471874Q316.53125 26.2375 316.95312 26.128124Q317.25 26.034374 317.89062 25.95625Q319.15625 25.815624 319.76562 25.596874Q319.76562 25.378124 319.76562 25.33125Q319.76562 24.675 319.46875 24.409374Q319.0625 24.065624 318.26562 24.065624Q317.53125 24.065624 317.17188 24.33125Q316.8125 24.58125 316.64062 25.2375L315.60938 25.096874Q315.75 24.440624 316.07812 24.034374Q316.40625 23.628124 317.01562 23.409374Q317.625 23.190624 318.42188 23.190624Q319.21875 23.190624 319.71875 23.378124Q320.21875 23.565624 320.45312 23.846874Q320.6875 24.128124 320.78125 24.565624Q320.82812 24.83125 320.82812 25.534374L320.82812 26.940624Q320.82812 28.409374 320.89062 28.8Q320.96875 29.190624 321.17188 29.55L320.0625 29.55Q319.90625 29.221874 319.85938 28.784374ZM319.76562 26.425Q319.1875 26.659374 318.04688 26.83125Q317.39062 26.925 317.125 27.05Q316.85938 27.159374 316.70312 27.378124Q316.5625 27.596874 316.5625 27.878124Q316.5625 28.3 316.875 28.58125Q317.20312 28.8625 317.8125 28.8625Q318.42188 28.8625 318.89062 28.596874Q319.375 28.33125 319.59375 27.8625Q319.76562 27.503124 319.76562 26.815624L319.76562 26.425ZM323.04688 29.55L323.04688 24.14375L322.10938 24.14375L322.10938 23.33125L323.04688 23.33125L323.04688 22.659374Q323.04688 22.034374 323.15625 21.7375Q323.3125 21.315624 323.6875 21.065624Q324.07812 20.815624 324.76562 20.815624Q325.21875 20.815624 325.75 20.925L325.59375 21.83125Q325.26562 21.784374 324.96875 21.784374Q324.48438 21.784374 324.28125 21.9875Q324.09375 22.190624 324.09375 22.753124L324.09375 23.33125L325.3125 23.33125L325.3125 24.14375L324.09375 24.14375L324.09375 29.55L323.04688 29.55ZM325.79688 29.55L325.79688 20.95625L326.85938 20.95625L326.85938 25.8625L329.34375 23.33125L330.71875 23.33125L328.32812 25.628124L330.95312 29.55L329.65625 29.55L327.59375 26.3625L326.85938 27.08125L326.85938 29.55L325.79688 29.55ZM335.85938 28.784374Q335.26562 29.284374 334.71875 29.4875Q334.1875 29.690624 333.5625 29.690624Q332.53125 29.690624 331.98438 29.190624Q331.4375 28.690624 331.4375 27.909374Q331.4375 27.45625 331.64062 27.08125Q331.84375 26.690624 332.1875 26.471874Q332.53125 26.2375 332.95312 26.128124Q333.25 26.034374 333.89062 25.95625Q335.15625 25.815624 335.76562 25.596874Q335.76562 25.378124 335.76562 25.33125Q335.76562 24.675 335.46875 24.409374Q335.0625 24.065624 334.26562 24.065624Q333.53125 24.065624 333.17188 24.33125Q332.8125 24.58125 332.64062 25.2375L331.60938 25.096874Q331.75 24.440624 332.07812 24.034374Q332.40625 23.628124 333.01562 23.409374Q333.625 23.190624 334.42188 23.190624Q335.21875 23.190624 335.71875 23.378124Q336.21875 23.565624 336.45312 23.846874Q336.6875 24.128124 336.78125 24.565624Q336.82812 24.83125 336.82812 25.534374L336.82812 26.940624Q336.82812 28.409374 336.89062 28.8Q336.96875 29.190624 337.17188 29.55L336.0625 29.55Q335.90625 29.221874 335.85938 28.784374ZM335.76562 26.425Q335.1875 26.659374 334.04688 26.83125Q333.39062 26.925 333.125 27.05Q332.85938 27.159374 332.70312 27.378124Q332.5625 27.596874 332.5625 27.878124Q332.5625 28.3 332.875 28.58125Q333.20312 28.8625 333.8125 28.8625Q334.42188 28.8625 334.89062 28.596874Q335.375 28.33125 335.59375 27.8625Q335.76562 27.503124 335.76562 26.815624L335.76562 26.425ZM341.375 27.690624L342.40625 27.534374Q342.5 28.159374 342.89062 28.4875Q343.29688 28.815624 344.03125 28.815624Q344.75 28.815624 345.09375 28.534374Q345.45312 28.2375 345.45312 27.83125Q345.45312 27.471874 345.14062 27.26875Q344.92188 27.128124 344.0625 26.909374Q342.90625 26.6125 342.45312 26.409374Q342.01562 26.190624 341.78125 25.815624Q341.54688 25.440624 341.54688 24.971874Q341.54688 24.565624 341.73438 24.20625Q341.92188 23.846874 342.25 23.6125Q342.5 23.440624 342.92188 23.315624Q343.34375 23.190624 343.84375 23.190624Q344.5625 23.190624 345.10938 23.409374Q345.67188 23.6125 345.9375 23.971874Q346.20312 24.33125 346.29688 24.925L345.26562 25.065624Q345.20312 24.596874 344.85938 24.33125Q344.53125 24.05 343.90625 24.05Q343.1875 24.05 342.875 24.3Q342.5625 24.534374 342.5625 24.8625Q342.5625 25.065624 342.6875 25.221874Q342.82812 25.39375 343.09375 25.503124Q343.25 25.565624 344.03125 25.76875Q345.15625 26.08125 345.59375 26.26875Q346.03125 26.45625 346.28125 26.815624Q346.53125 27.175 346.53125 27.721874Q346.53125 28.253124 346.21875 28.721874Q345.92188 29.175 345.34375 29.440624Q344.76562 29.690624 344.03125 29.690624Q342.8125 29.690624 342.17188 29.190624Q341.54688 28.675 341.375 27.690624ZM351.09375 28.6125L351.25 29.534374Q350.79688 29.628124 350.45312 29.628124Q349.875 29.628124 349.5625 29.45625Q349.25 29.26875 349.10938 28.971874Q348.98438 28.675 348.98438 27.721874L348.98438 24.14375L348.21875 24.14375L348.21875 23.33125L348.98438 23.33125L348.98438 21.784374L350.03125 21.159374L350.03125 23.33125L351.09375 23.33125L351.09375 24.14375L350.03125 24.14375L350.03125 27.784374Q350.03125 28.2375 350.07812 28.3625Q350.14062 28.4875 350.26562 28.565624Q350.39062 28.64375 350.625 28.64375Q350.8125 28.64375 351.09375 28.6125ZM355.85938 28.784374Q355.26562 29.284374 354.71875 29.4875Q354.1875 29.690624 353.5625 29.690624Q352.53125 29.690624 351.98438 29.190624Q351.4375 28.690624 351.4375 27.909374Q351.4375 27.45625 351.64062 27.08125Q351.84375 26.690624 352.1875 26.471874Q352.53125 26.2375 352.95312 26.128124Q353.25 26.034374 353.89062 25.95625Q355.15625 25.815624 355.76562 25.596874Q355.76562 25.378124 355.76562 25.33125Q355.76562 24.675 355.46875 24.409374Q355.0625 24.065624 354.26562 24.065624Q353.53125 24.065624 353.17188 24.33125Q352.8125 24.58125 352.64062 25.2375L351.60938 25.096874Q351.75 24.440624 352.07812 24.034374Q352.40625 23.628124 353.01562 23.409374Q353.625 23.190624 354.42188 23.190624Q355.21875 23.190624 355.71875 23.378124Q356.21875 23.565624 356.45312 23.846874Q356.6875 24.128124 356.78125 24.565624Q356.82812 24.83125 356.82812 25.534374L356.82812 26.940624Q356.82812 28.409374 356.89062 28.8Q356.96875 29.190624 357.17188 29.55L356.0625 29.55Q355.90625 29.221874 355.85938 28.784374ZM355.76562 26.425Q355.1875 26.659374 354.04688 26.83125Q353.39062 26.925 353.125 27.05Q352.85938 27.159374 352.70312 27.378124Q352.5625 27.596874 352.5625 27.878124Q352.5625 28.3 352.875 28.58125Q353.20312 28.8625 353.8125 28.8625Q354.42188 28.8625 354.89062 28.596874Q355.375 28.33125 355.59375 27.8625Q355.76562 27.503124 355.76562 26.815624L355.76562 26.425ZM358.79688 29.55L358.79688 23.33125L359.73438 23.33125L359.73438 24.20625Q360.42188 23.190624 361.71875 23.190624Q362.28125 23.190624 362.75 23.39375Q363.23438 23.596874 363.46875 23.925Q363.70312 24.253124 363.79688 24.690624Q363.84375 24.9875 363.84375 25.721874L363.84375 29.55L362.79688 29.55L362.79688 25.76875Q362.79688 25.1125 362.67188 24.8Q362.54688 24.4875 362.23438 24.3Q361.92188 24.096874 361.5 24.096874Q360.82812 24.096874 360.32812 24.534374Q359.84375 24.95625 359.84375 26.14375L359.84375 29.55L358.79688 29.55ZM369.82812 29.55L369.82812 28.76875Q369.23438 29.690624 368.09375 29.690624Q367.34375 29.690624 366.71875 29.284374Q366.09375 28.8625 365.75 28.128124Q365.40625 27.39375 365.40625 26.440624Q365.40625 25.51875 365.71875 24.753124Q366.03125 23.9875 366.65625 23.596874Q367.28125 23.190624 368.04688 23.190624Q368.60938 23.190624 369.04688 23.425Q369.48438 23.659374 369.76562 24.034374L369.76562 20.95625L370.8125 20.95625L370.8125 29.55L369.82812 29.55ZM366.5 26.440624Q366.5 27.64375 367.0 28.2375Q367.5 28.815624 368.1875 28.815624Q368.875 28.815624 369.35938 28.253124Q369.84375 27.690624 369.84375 26.534374Q369.84375 25.253124 369.34375 24.659374Q368.85938 24.065624 368.14062 24.065624Q367.4375 24.065624 366.96875 24.64375Q366.5 25.20625 366.5 26.440624ZM376.85938 28.784374Q376.26562 29.284374 375.71875 29.4875Q375.1875 29.690624 374.5625 29.690624Q373.53125 29.690624 372.98438 29.190624Q372.4375 28.690624 372.4375 27.909374Q372.4375 27.45625 372.64062 27.08125Q372.84375 26.690624 373.1875 26.471874Q373.53125 26.2375 373.95312 26.128124Q374.25 26.034374 374.89062 25.95625Q376.15625 25.815624 376.76562 25.596874Q376.76562 25.378124 376.76562 25.33125Q376.76562 24.675 376.46875 24.409374Q376.0625 24.065624 375.26562 24.065624Q374.53125 24.065624 374.17188 24.33125Q373.8125 24.58125 373.64062 25.2375L372.60938 25.096874Q372.75 24.440624 373.07812 24.034374Q373.40625 23.628124 374.01562 23.409374Q374.625 23.190624 375.42188 23.190624Q376.21875 23.190624 376.71875 23.378124Q377.21875 23.565624 377.45312 23.846874Q377.6875 24.128124 377.78125 24.565624Q377.82812 24.83125 377.82812 25.534374L377.82812 26.940624Q377.82812 28.409374 377.89062 28.8Q377.96875 29.190624 378.17188 29.55L377.0625 29.55Q376.90625 29.221874 376.85938 28.784374ZM376.76562 26.425Q376.1875 26.659374 375.04688 26.83125Q374.39062 26.925 374.125 27.05Q373.85938 27.159374 373.70312 27.378124Q373.5625 27.596874 373.5625 27.878124Q373.5625 28.3 373.875 28.58125Q374.20312 28.8625 374.8125 28.8625Q375.42188 28.8625 375.89062 28.596874Q376.375 28.33125 376.59375 27.8625Q376.76562 27.503124 376.76562 26.815624L376.76562 26.425ZM379.76562 29.55L379.76562 20.95625L380.82812 20.95625L380.82812 29.55L379.76562 29.55ZM382.40625 26.440624Q382.40625 24.70625 383.35938 23.878124Q384.15625 23.190624 385.3125 23.190624Q386.59375 23.190624 387.40625 24.034374Q388.23438 24.8625 388.23438 26.346874Q388.23438 27.55 387.875 28.2375Q387.51562 28.925 386.8125 29.315624Q386.125 29.690624 385.3125 29.690624Q384.01562 29.690624 383.20312 28.8625Q382.40625 28.01875 382.40625 26.440624ZM383.48438 26.440624Q383.48438 27.628124 384.0 28.221874Q384.53125 28.815624 385.3125 28.815624Q386.10938 28.815624 386.625 28.221874Q387.14062 27.628124 387.14062 26.409374Q387.14062 25.253124 386.60938 24.659374Q386.09375 24.065624 385.3125 24.065624Q384.53125 24.065624 384.0 24.659374Q383.48438 25.2375 383.48438 26.440624ZM389.79688 29.55L389.79688 23.33125L390.73438 23.33125L390.73438 24.20625Q391.42188 23.190624 392.71875 23.190624Q393.28125 23.190624 393.75 23.39375Q394.23438 23.596874 394.46875 23.925Q394.70312 24.253124 394.79688 24.690624Q394.84375 24.9875 394.84375 25.721874L394.84375 29.55L393.79688 29.55L393.79688 25.76875Q393.79688 25.1125 393.67188 24.8Q393.54688 24.4875 393.23438 24.3Q392.92188 24.096874 392.5 24.096874Q391.82812 24.096874 391.32812 24.534374Q390.84375 24.95625 390.84375 26.14375L390.84375 29.55L389.79688 29.55ZM401.04688 27.55L402.14062 27.675Q401.89062 28.628124 401.1875 29.159374Q400.48438 29.690624 399.40625 29.690624Q398.04688 29.690624 397.23438 28.846874Q396.4375 28.003124 396.4375 26.4875Q396.4375 24.925 397.25 24.065624Q398.0625 23.190624 399.34375 23.190624Q400.59375 23.190624 401.375 24.034374Q402.17188 24.878124 402.17188 26.425Q402.17188 26.51875 402.17188 26.70625L397.53125 26.70625Q397.59375 27.7375 398.10938 28.284374Q398.625 28.815624 399.40625 28.815624Q399.98438 28.815624 400.39062 28.51875Q400.8125 28.20625 401.04688 27.55ZM397.59375 25.846874L401.0625 25.846874Q401.0 25.05 400.67188 24.659374Q400.15625 24.05 399.35938 24.05Q398.625 24.05 398.125 24.534374Q397.64062 25.01875 397.59375 25.846874Z" fill-rule="nonzero"/><path fill="#38761d" d="M425.0 19.55L431.0 25.55L425.0 31.55L419.0 25.55Z" fill-rule="nonzero"/><path fill="#1a1a1a" d="M439.875 29.55L439.875 20.95625L441.01562 20.95625L441.01562 28.534374L445.25 28.534374L445.25 29.55L439.875 29.55ZM446.79688 22.175L446.79688 20.95625L447.85938 20.95625L447.85938 22.175L446.79688 22.175ZM446.79688 29.55L446.79688 23.33125L447.85938 23.33125L447.85938 29.55L446.79688 29.55ZM449.59375 30.065624L450.625 30.221874Q450.6875 30.690624 450.98438 30.909374Q451.375 31.20625 452.04688 31.20625Q452.78125 31.20625 453.17188 30.909374Q453.57812 30.6125 453.71875 30.096874Q453.8125 29.76875 453.79688 28.7375Q453.10938 29.55 452.07812 29.55Q450.79688 29.55 450.09375 28.628124Q449.39062 27.690624 449.39062 26.409374Q449.39062 25.51875 449.70312 24.76875Q450.03125 24.003124 450.64062 23.596874Q451.25 23.190624 452.07812 23.190624Q453.1875 23.190624 453.90625 24.08125L453.90625 23.33125L454.875 23.33125L454.875 28.70625Q454.875 30.159374 454.57812 30.76875Q454.28125 31.378124 453.64062 31.721874Q453.0 32.08125 452.0625 32.08125Q450.95312 32.08125 450.26562 31.58125Q449.57812 31.08125 449.59375 30.065624ZM450.46875 26.33125Q450.46875 27.55 450.95312 28.1125Q451.4375 28.675 452.17188 28.675Q452.90625 28.675 453.39062 28.1125Q453.89062 27.55 453.89062 26.3625Q453.89062 25.221874 453.375 24.64375Q452.875 24.065624 452.15625 24.065624Q451.45312 24.065624 450.95312 24.64375Q450.46875 25.20625 450.46875 26.33125ZM456.79688 29.55L456.79688 20.95625L457.84375 20.95625L457.84375 24.034374Q458.57812 23.190624 459.70312 23.190624Q460.40625 23.190624 460.90625 23.471874Q461.42188 23.7375 461.64062 24.221874Q461.85938 24.690624 461.85938 25.6125L461.85938 29.55L460.8125 29.55L460.8125 25.6125Q460.8125 24.815624 460.46875 24.45625Q460.125 24.096874 459.5 24.096874Q459.03125 24.096874 458.60938 24.346874Q458.20312 24.58125 458.01562 25.003124Q457.84375 25.409374 457.84375 26.14375L457.84375 29.55L456.79688 29.55ZM466.09375 28.6125L466.25 29.534374Q465.79688 29.628124 465.45312 29.628124Q464.875 29.628124 464.5625 29.45625Q464.25 29.26875 464.10938 28.971874Q463.98438 28.675 463.98438 27.721874L463.98438 24.14375L463.21875 24.14375L463.21875 23.33125L463.98438 23.33125L463.98438 21.784374L465.03125 21.159374L465.03125 23.33125L466.09375 23.33125L466.09375 24.14375L465.03125 24.14375L465.03125 27.784374Q465.03125 28.2375 465.07812 28.3625Q465.14062 28.4875 465.26562 28.565624Q465.39062 28.64375 465.625 28.64375Q465.8125 28.64375 466.09375 28.6125ZM466.375 27.690624L467.40625 27.534374Q467.5 28.159374 467.89062 28.4875Q468.29688 28.815624 469.03125 28.815624Q469.75 28.815624 470.09375 28.534374Q470.45312 28.2375 470.45312 27.83125Q470.45312 27.471874 470.14062 27.26875Q469.92188 27.128124 469.0625 26.909374Q467.90625 26.6125 467.45312 26.409374Q467.01562 26.190624 466.78125 25.815624Q466.54688 25.440624 466.54688 24.971874Q466.54688 24.565624 466.73438 24.20625Q466.92188 23.846874 467.25 23.6125Q467.5 23.440624 467.92188 23.315624Q468.34375 23.190624 468.84375 23.190624Q469.5625 23.190624 470.10938 23.409374Q470.67188 23.6125 470.9375 23.971874Q471.20312 24.33125 471.29688 24.925L470.26562 25.065624Q470.20312 24.596874 469.85938 24.33125Q469.53125 24.05 468.90625 24.05Q468.1875 24.05 467.875 24.3Q467.5625 24.534374 467.5625 24.8625Q467.5625 25.065624 467.6875 25.221874Q467.82812 25.39375 468.09375 25.503124Q468.25 25.565624 469.03125 25.76875Q470.15625 26.08125 470.59375 26.26875Q471.03125 26.45625 471.28125 26.815624Q471.53125 27.175 471.53125 27.721874Q471.53125 28.253124 471.21875 28.721874Q470.92188 29.175 470.34375 29.440624Q469.76562 29.690624 469.03125 29.690624Q467.8125 29.690624 467.17188 29.190624Q466.54688 28.675 466.375 27.690624ZM476.09375 28.6125L476.25 29.534374Q475.79688 29.628124 475.45312 29.628124Q474.875 29.628124 474.5625 29.45625Q474.25 29.26875 474.10938 28.971874Q473.98438 28.675 473.98438 27.721874L473.98438 24.14375L473.21875 24.14375L473.21875 23.33125L473.98438 23.33125L473.98438 21.784374L475.03125 21.159374L475.03125 23.33125L476.09375 23.33125L476.09375 24.14375L475.03125 24.14375L475.03125 27.784374Q475.03125 28.2375 475.07812 28.3625Q475.14062 28.4875 475.26562 28.565624Q475.39062 28.64375 475.625 28.64375Q475.8125 28.64375 476.09375 28.6125ZM476.78125 29.55L476.78125 23.33125L477.73438 23.33125L477.73438 24.26875Q478.09375 23.6125 478.39062 23.409374Q478.70312 23.190624 479.07812 23.190624Q479.60938 23.190624 480.15625 23.51875L479.79688 24.503124Q479.40625 24.26875 479.03125 24.26875Q478.67188 24.26875 478.39062 24.4875Q478.125 24.690624 478.01562 25.065624Q477.82812 25.628124 477.82812 26.284374L477.82812 29.55L476.78125 29.55ZM485.04688 27.55L486.14062 27.675Q485.89062 28.628124 485.1875 29.159374Q484.48438 29.690624 483.40625 29.690624Q482.04688 29.690624 481.23438 28.846874Q480.4375 28.003124 480.4375 26.4875Q480.4375 24.925 481.25 24.065624Q482.0625 23.190624 483.34375 23.190624Q484.59375 23.190624 485.375 24.034374Q486.17188 24.878124 486.17188 26.425Q486.17188 26.51875 486.17188 26.70625L481.53125 26.70625Q481.59375 27.7375 482.10938 28.284374Q482.625 28.815624 483.40625 28.815624Q483.98438 28.815624 484.39062 28.51875Q484.8125 28.20625 485.04688 27.55ZM481.59375 25.846874L485.0625 25.846874Q485.0 25.05 484.67188 24.659374Q484.15625 24.05 483.35938 24.05Q482.625 24.05 482.125 24.534374Q481.64062 25.01875 481.59375 25.846874ZM491.85938 28.784374Q491.26562 29.284374 490.71875 29.4875Q490.1875 29.690624 489.5625 29.690624Q488.53125 29.690624 487.98438 29.190624Q487.4375 28.690624 487.4375 27.909374Q487.4375 27.45625 487.64062 27.08125Q487.84375 26.690624 488.1875 26.471874Q488.53125 26.2375 488.95312 26.128124Q489.25 26.034374 489.89062 25.95625Q491.15625 25.815624 491.76562 25.596874Q491.76562 25.378124 491.76562 25.33125Q491.76562 24.675 491.46875 24.409374Q491.0625 24.065624 490.26562 24.065624Q489.53125 24.065624 489.17188 24.33125Q488.8125 24.58125 488.64062 25.2375L487.60938 25.096874Q487.75 24.440624 488.07812 24.034374Q488.40625 23.628124 489.01562 23.409374Q489.625 23.190624 490.42188 23.190624Q491.21875 23.190624 491.71875 23.378124Q492.21875 23.565624 492.45312 23.846874Q492.6875 24.128124 492.78125 24.565624Q492.82812 24.83125 492.82812 25.534374L492.82812 26.940624Q492.82812 28.409374 492.89062 28.8Q492.96875 29.190624 493.17188 29.55L492.0625 29.55Q491.90625 29.221874 491.85938 28.784374ZM491.76562 26.425Q491.1875 26.659374 490.04688 26.83125Q489.39062 26.925 489.125 27.05Q488.85938 27.159374 488.70312 27.378124Q488.5625 27.596874 488.5625 27.878124Q488.5625 28.3 488.875 28.58125Q489.20312 28.8625 489.8125 28.8625Q490.42188 28.8625 490.89062 28.596874Q491.375 28.33125 491.59375 27.8625Q491.76562 27.503124 491.76562 26.815624L491.76562 26.425ZM494.79688 29.55L494.79688 23.33125L495.73438 23.33125L495.73438 24.20625Q496.03125 23.7375 496.51562 23.471874Q497.0 23.190624 497.625 23.190624Q498.3125 23.190624 498.75 23.471874Q499.20312 23.753124 499.375 24.26875Q500.125 23.190624 501.29688 23.190624Q502.23438 23.190624 502.71875 23.70625Q503.21875 24.20625 503.21875 25.284374L503.21875 29.55L502.17188 29.55L502.17188 25.628124Q502.17188 25.003124 502.0625 24.721874Q501.96875 24.440624 501.70312 24.26875Q501.4375 24.096874 501.0625 24.096874Q500.40625 24.096874 499.96875 24.534374Q499.54688 24.971874 499.54688 25.940624L499.54688 29.55L498.48438 29.55L498.48438 25.503124Q498.48438 24.8 498.21875 24.45625Q497.96875 24.096874 497.39062 24.096874Q496.9375 24.096874 496.5625 24.33125Q496.1875 24.565624 496.01562 25.01875Q495.84375 25.471874 495.84375 26.315624L495.84375 29.55L494.79688 29.55ZM510.04688 27.55L511.14062 27.675Q510.89062 28.628124 510.1875 29.159374Q509.48438 29.690624 508.40625 29.690624Q507.04688 29.690624 506.23438 28.846874Q505.4375 28.003124 505.4375 26.4875Q505.4375 24.925 506.25 24.065624Q507.0625 23.190624 508.34375 23.190624Q509.59375 23.190624 510.375 24.034374Q511.17188 24.878124 511.17188 26.425Q511.17188 26.51875 511.17188 26.70625L506.53125 26.70625Q506.59375 27.7375 507.10938 28.284374Q507.625 28.815624 508.40625 28.815624Q508.98438 28.815624 509.39062 28.51875Q509.8125 28.20625 510.04688 27.55ZM506.59375 25.846874L510.0625 25.846874Q510.0 25.05 509.67188 24.659374Q509.15625 24.05 508.35938 24.05Q507.625 24.05 507.125 24.534374Q506.64062 25.01875 506.59375 25.846874ZM512.78125 29.55L512.78125 23.33125L513.7344 23.33125L513.7344 24.26875Q514.09375 23.6125 514.3906 23.409374Q514.7031 23.190624 515.0781 23.190624Q515.6094 23.190624 516.15625 23.51875L515.7969 24.503124Q515.40625 24.26875 515.03125 24.26875Q514.6719 24.26875 514.3906 24.4875Q514.125 24.690624 514.0156 25.065624Q513.8281 25.628124 513.8281 26.284374L513.8281 29.55L512.78125 29.55ZM523.8594 27.26875L524.8906 27.409374Q524.71875 28.471874 524.0156 29.08125Q523.3125 29.690624 522.2969 29.690624Q521.0156 29.690624 520.2344 28.8625Q519.46875 28.01875 519.46875 26.45625Q519.46875 25.45625 519.7969 24.70625Q520.1406 23.940624 520.8125 23.565624Q521.5 23.190624 522.3125 23.190624Q523.3125 23.190624 523.9531 23.70625Q524.6094 24.20625 524.7969 25.159374L523.7656 25.315624Q523.625 24.690624 523.25 24.378124Q522.875 24.05 522.34375 24.05Q521.5469 24.05 521.0469 24.628124Q520.5469 25.190624 520.5469 26.425Q520.5469 27.690624 521.03125 28.253124Q521.5156 28.815624 522.28125 28.815624Q522.90625 28.815624 523.3125 28.440624Q523.7344 28.065624 523.8594 27.26875ZM525.7656 29.55L525.7656 20.95625L526.8281 20.95625L526.8281 29.55L525.7656 29.55ZM528.7969 22.175L528.7969 20.95625L529.8594 20.95625L529.8594 22.175L528.7969 22.175ZM528.7969 29.55L528.7969 23.33125L529.8594 23.33125L529.8594 29.55L528.7969 29.55ZM536.0469 27.55L537.1406 27.675Q536.8906 28.628124 536.1875 29.159374Q535.4844 29.690624 534.40625 29.690624Q533.0469 29.690624 532.2344 28.846874Q531.4375 28.003124 531.4375 26.4875Q531.4375 24.925 532.25 24.065624Q533.0625 23.190624 534.34375 23.190624Q535.59375 23.190624 536.375 24.034374Q537.1719 24.878124 537.1719 26.425Q537.1719 26.51875 537.1719 26.70625L532.53125 26.70625Q532.59375 27.7375 533.1094 28.284374Q533.625 28.815624 534.40625 28.815624Q534.9844 28.815624 535.3906 28.51875Q535.8125 28.20625 536.0469 27.55ZM532.59375 25.846874L536.0625 25.846874Q536.0 25.05 535.6719 24.659374Q535.15625 24.05 534.3594 24.05Q533.625 24.05 533.125 24.534374Q532.6406 25.01875 532.59375 25.846874ZM538.7969 29.55L538.7969 23.33125L539.7344 23.33125L539.7344 24.20625Q540.4219 23.190624 541.71875 23.190624Q542.28125 23.190624 542.75 23.39375Q543.2344 23.596874 543.46875 23.925Q543.7031 24.253124 543.7969 24.690624Q543.84375 24.9875 543.84375 25.721874L543.84375 29.55L542.7969 29.55L542.7969 25.76875Q542.7969 25.1125 542.6719 24.8Q542.5469 24.4875 542.2344 24.3Q541.9219 24.096874 541.5 24.096874Q540.8281 24.096874 540.3281 24.534374Q539.84375 24.95625 539.84375 26.14375L539.84375 29.55L538.7969 29.55ZM548.09375 28.6125L548.25 29.534374Q547.7969 29.628124 547.4531 29.628124Q546.875 29.628124 546.5625 29.45625Q546.25 29.26875 546.1094 28.971874Q545.9844 28.675 545.9844 27.721874L545.9844 24.14375L545.21875 24.14375L545.21875 23.33125L545.9844 23.33125L545.9844 21.784374L547.03125 21.159374L547.03125 23.33125L548.09375 23.33125L548.09375 24.14375L547.03125 24.14375L547.03125 27.784374Q547.03125 28.2375 547.0781 28.3625Q547.1406 28.4875 547.2656 28.565624Q547.3906 28.64375 547.625 28.64375Q547.8125 28.64375 548.09375 28.6125ZM548.375 27.690624L549.40625 27.534374Q549.5 28.159374 549.8906 28.4875Q550.2969 28.815624 551.03125 28.815624Q551.75 28.815624 552.09375 28.534374Q552.4531 28.2375 552.4531 27.83125Q552.4531 27.471874 552.1406 27.26875Q551.9219 27.128124 551.0625 26.909374Q549.90625 26.6125 549.4531 26.409374Q549.0156 26.190624 548.78125 25.815624Q548.5469 25.440624 548.5469 24.971874Q548.5469 24.565624 548.7344 24.20625Q548.9219 23.846874 549.25 23.6125Q549.5 23.440624 549.9219 23.315624Q550.34375 23.190624 550.84375 23.190624Q551.5625 23.190624 552.1094 23.409374Q552.6719 23.6125 552.9375 23.971874Q553.2031 24.33125 553.2969 24.925L552.2656 25.065624Q552.2031 24.596874 551.8594 24.33125Q551.53125 24.05 550.90625 24.05Q550.1875 24.05 549.875 24.3Q549.5625 24.534374 549.5625 24.8625Q549.5625 25.065624 549.6875 25.221874Q549.8281 25.39375 550.09375 25.503124Q550.25 25.565624 551.03125 25.76875Q552.15625 26.08125 552.59375 26.26875Q553.03125 26.45625 553.28125 26.815624Q553.53125 27.175 553.53125 27.721874Q553.53125 28.253124 553.21875 28.721874Q552.9219 29.175 552.34375 29.440624Q551.7656 29.690624 551.03125 29.690624Q549.8125 29.690624 549.1719 29.190624Q548.5469 28.675 548.375 27.690624Z" fill-rule="nonzero"/><path fill="#6aa84f" d="M577.0 19.55L583.0 25.55L577.0 31.55L571.0 25.55Z" fill-rule="nonzero"/><path fill="#1a1a1a" d="M591.875 29.55L591.875 20.95625L593.0156 20.95625L593.0156 28.534374L597.25 28.534374L597.25 29.55L591.875 29.55ZM598.7969 22.175L598.7969 20.95625L599.8594 20.95625L599.8594 22.175L598.7969 22.175ZM598.7969 29.55L598.7969 23.33125L599.8594 23.33125L599.8594 29.55L598.7969 29.55ZM601.59375 30.065624L602.625 30.221874Q602.6875 30.690624 602.9844 30.909374Q603.375 31.20625 604.0469 31.20625Q604.78125 31.20625 605.1719 30.909374Q605.5781 30.6125 605.71875 30.096874Q605.8125 29.76875 605.7969 28.7375Q605.1094 29.55 604.0781 29.55Q602.7969 29.55 602.09375 28.628124Q601.3906 27.690624 601.3906 26.409374Q601.3906 25.51875 601.7031 24.76875Q602.03125 24.003124 602.6406 23.596874Q603.25 23.190624 604.0781 23.190624Q605.1875 23.190624 605.90625 24.08125L605.90625 23.33125L606.875 23.33125L606.875 28.70625Q606.875 30.159374 606.5781 30.76875Q606.28125 31.378124 605.6406 31.721874Q605.0 32.08125 604.0625 32.08125Q602.9531 32.08125 602.2656 31.58125Q601.5781 31.08125 601.59375 30.065624ZM602.46875 26.33125Q602.46875 27.55 602.9531 28.1125Q603.4375 28.675 604.1719 28.675Q604.90625 28.675 605.3906 28.1125Q605.8906 27.55 605.8906 26.3625Q605.8906 25.221874 605.375 24.64375Q604.875 24.065624 604.15625 24.065624Q603.4531 24.065624 602.9531 24.64375Q602.46875 25.20625 602.46875 26.33125ZM608.7969 29.55L608.7969 20.95625L609.84375 20.95625L609.84375 24.034374Q610.5781 23.190624 611.7031 23.190624Q612.40625 23.190624 612.90625 23.471874Q613.4219 23.7375 613.6406 24.221874Q613.8594 24.690624 613.8594 25.6125L613.8594 29.55L612.8125 29.55L612.8125 25.6125Q612.8125 24.815624 612.46875 24.45625Q612.125 24.096874 611.5 24.096874Q611.03125 24.096874 610.6094 24.346874Q610.2031 24.58125 610.0156 25.003124Q609.84375 25.409374 609.84375 26.14375L609.84375 29.55L608.7969 29.55ZM618.09375 28.6125L618.25 29.534374Q617.7969 29.628124 617.4531 29.628124Q616.875 29.628124 616.5625 29.45625Q616.25 29.26875 616.1094 28.971874Q615.9844 28.675 615.9844 27.721874L615.9844 24.14375L615.21875 24.14375L615.21875 23.33125L615.9844 23.33125L615.9844 21.784374L617.03125 21.159374L617.03125 23.33125L618.09375 23.33125L618.09375 24.14375L617.03125 24.14375L617.03125 27.784374Q617.03125 28.2375 617.0781 28.3625Q617.1406 28.4875 617.2656 28.565624Q617.3906 28.64375 617.625 28.64375Q617.8125 28.64375 618.09375 28.6125ZM618.375 27.690624L619.40625 27.534374Q619.5 28.159374 619.8906 28.4875Q620.2969 28.815624 621.03125 28.815624Q621.75 28.815624 622.09375 28.534374Q622.4531 28.2375 622.4531 27.83125Q622.4531 27.471874 622.1406 27.26875Q621.9219 27.128124 621.0625 26.909374Q619.90625 26.6125 619.4531 26.409374Q619.0156 26.190624 618.78125 25.815624Q618.5469 25.440624 618.5469 24.971874Q618.5469 24.565624 618.7344 24.20625Q618.9219 23.846874 619.25 23.6125Q619.5 23.440624 619.9219 23.315624Q620.34375 23.190624 620.84375 23.190624Q621.5625 23.190624 622.1094 23.409374Q622.6719 23.6125 622.9375 23.971874Q623.2031 24.33125 623.2969 24.925L622.2656 25.065624Q622.2031 24.596874 621.8594 24.33125Q621.53125 24.05 620.90625 24.05Q620.1875 24.05 619.875 24.3Q619.5625 24.534374 619.5625 24.8625Q619.5625 25.065624 619.6875 25.221874Q619.8281 25.39375 620.09375 25.503124Q620.25 25.565624 621.03125 25.76875Q622.15625 26.08125 622.59375 26.26875Q623.03125 26.45625 623.28125 26.815624Q623.53125 27.175 623.53125 27.721874Q623.53125 28.253124 623.21875 28.721874Q622.9219 29.175 622.34375 29.440624Q621.7656 29.690624 621.03125 29.690624Q619.8125 29.690624 619.1719 29.190624Q618.5469 28.675 618.375 27.690624ZM628.09375 28.6125L628.25 29.534374Q627.7969 29.628124 627.4531 29.628124Q626.875 29.628124 626.5625 29.45625Q626.25 29.26875 626.1094 28.971874Q625.9844 28.675 625.9844 27.721874L625.9844 24.14375L625.21875 24.14375L625.21875 23.33125L625.9844 23.33125L625.9844 21.784374L627.03125 21.159374L627.03125 23.33125L628.09375 23.33125L628.09375 24.14375L627.03125 24.14375L627.03125 27.784374Q627.03125 28.2375 627.0781 28.3625Q627.1406 28.4875 627.2656 28.565624Q627.3906 28.64375 627.625 28.64375Q627.8125 28.64375 628.09375 28.6125ZM628.78125 29.55L628.78125 23.33125L629.7344 23.33125L629.7344 24.26875Q630.09375 23.6125 630.3906 23.409374Q630.7031 23.190624 631.0781 23.190624Q631.6094 23.190624 632.15625 23.51875L631.7969 24.503124Q631.40625 24.26875 631.03125 24.26875Q630.6719 24.26875 630.3906 24.4875Q630.125 24.690624 630.0156 25.065624Q629.8281 25.628124 629.8281 26.284374L629.8281 29.55L628.78125 29.55ZM637.0469 27.55L638.1406 27.675Q637.8906 28.628124 637.1875 29.159374Q636.4844 29.690624 635.40625 29.690624Q634.0469 29.690624 633.2344 28.846874Q632.4375 28.003124 632.4375 26.4875Q632.4375 24.925 633.25 24.065624Q634.0625 23.190624 635.34375 23.190624Q636.59375 23.190624 637.375 24.034374Q638.1719 24.878124 638.1719 26.425Q638.1719 26.51875 638.1719 26.70625L633.53125 26.70625Q633.59375 27.7375 634.1094 28.284374Q634.625 28.815624 635.40625 28.815624Q635.9844 28.815624 636.3906 28.51875Q636.8125 28.20625 637.0469 27.55ZM633.59375 25.846874L637.0625 25.846874Q637.0 25.05 636.6719 24.659374Q636.15625 24.05 635.3594 24.05Q634.625 24.05 634.125 24.534374Q633.6406 25.01875 633.59375 25.846874ZM643.8594 28.784374Q643.2656 29.284374 642.71875 29.4875Q642.1875 29.690624 641.5625 29.690624Q640.53125 29.690624 639.9844 29.190624Q639.4375 28.690624 639.4375 27.909374Q639.4375 27.45625 639.6406 27.08125Q639.84375 26.690624 640.1875 26.471874Q640.53125 26.2375 640.9531 26.128124Q641.25 26.034374 641.8906 25.95625Q643.15625 25.815624 643.7656 25.596874Q643.7656 25.378124 643.7656 25.33125Q643.7656 24.675 643.46875 24.409374Q643.0625 24.065624 642.2656 24.065624Q641.53125 24.065624 641.1719 24.33125Q640.8125 24.58125 640.6406 25.2375L639.6094 25.096874Q639.75 24.440624 640.0781 24.034374Q640.40625 23.628124 641.0156 23.409374Q641.625 23.190624 642.4219 23.190624Q643.21875 23.190624 643.71875 23.378124Q644.21875 23.565624 644.4531 23.846874Q644.6875 24.128124 644.78125 24.565624Q644.8281 24.83125 644.8281 25.534374L644.8281 26.940624Q644.8281 28.409374 644.8906 28.8Q644.96875 29.190624 645.1719 29.55L644.0625 29.55Q643.90625 29.221874 643.8594 28.784374ZM643.7656 26.425Q643.1875 26.659374 642.0469 26.83125Q641.3906 26.925 641.125 27.05Q640.8594 27.159374 640.7031 27.378124Q640.5625 27.596874 640.5625 27.878124Q640.5625 28.3 640.875 28.58125Q641.2031 28.8625 641.8125 28.8625Q642.4219 28.8625 642.8906 28.596874Q643.375 28.33125 643.59375 27.8625Q643.7656 27.503124 643.7656 26.815624L643.7656 26.425ZM646.7969 29.55L646.7969 23.33125L647.7344 23.33125L647.7344 24.20625Q648.03125 23.7375 648.5156 23.471874Q649.0 23.190624 649.625 23.190624Q650.3125 23.190624 650.75 23.471874Q651.2031 23.753124 651.375 24.26875Q652.125 23.190624 653.2969 23.190624Q654.2344 23.190624 654.71875 23.70625Q655.21875 24.20625 655.21875 25.284374L655.21875 29.55L654.1719 29.55L654.1719 25.628124Q654.1719 25.003124 654.0625 24.721874Q653.96875 24.440624 653.7031 24.26875Q653.4375 24.096874 653.0625 24.096874Q652.40625 24.096874 651.96875 24.534374Q651.5469 24.971874 651.5469 25.940624L651.5469 29.55L650.4844 29.55L650.4844 25.503124Q650.4844 24.8 650.21875 24.45625Q649.96875 24.096874 649.3906 24.096874Q648.9375 24.096874 648.5625 24.33125Q648.1875 24.565624 648.0156 25.01875Q647.84375 25.471874 647.84375 26.315624L647.84375 29.55L646.7969 29.55ZM662.0469 27.55L663.1406 27.675Q662.8906 28.628124 662.1875 29.159374Q661.4844 29.690624 660.40625 29.690624Q659.0469 29.690624 658.2344 28.846874Q657.4375 28.003124 657.4375 26.4875Q657.4375 24.925 658.25 24.065624Q659.0625 23.190624 660.34375 23.190624Q661.59375 23.190624 662.375 24.034374Q663.1719 24.878124 663.1719 26.425Q663.1719 26.51875 663.1719 26.70625L658.53125 26.70625Q658.59375 27.7375 659.1094 28.284374Q659.625 28.815624 660.40625 28.815624Q660.9844 28.815624 661.3906 28.51875Q661.8125 28.20625 662.0469 27.55ZM658.59375 25.846874L662.0625 25.846874Q662.0 25.05 661.6719 24.659374Q661.15625 24.05 660.3594 24.05Q659.625 24.05 659.125 24.534374Q658.6406 25.01875 658.59375 25.846874ZM664.78125 29.55L664.78125 23.33125L665.7344 23.33125L665.7344 24.26875Q666.09375 23.6125 666.3906 23.409374Q666.7031 23.190624 667.0781 23.190624Q667.6094 23.190624 668.15625 23.51875L667.7969 24.503124Q667.40625 24.26875 667.03125 24.26875Q666.6719 24.26875 666.3906 24.4875Q666.125 24.690624 666.0156 25.065624Q665.8281 25.628124 665.8281 26.284374L665.8281 29.55L664.78125 29.55ZM671.78125 22.190624L671.78125 20.95625L672.84375 20.95625L672.84375 22.190624L671.78125 22.190624ZM670.4531 31.971874L670.6406 31.065624Q670.96875 31.14375 671.1406 31.14375Q671.46875 31.14375 671.625 30.925Q671.78125 30.721874 671.78125 29.8625L671.78125 23.33125L672.84375 23.33125L672.84375 29.89375Q672.84375 31.034374 672.5469 31.4875Q672.15625 32.08125 671.28125 32.08125Q670.84375 32.08125 670.4531 31.971874ZM674.375 27.690624L675.40625 27.534374Q675.5 28.159374 675.8906 28.4875Q676.2969 28.815624 677.03125 28.815624Q677.75 28.815624 678.09375 28.534374Q678.4531 28.2375 678.4531 27.83125Q678.4531 27.471874 678.1406 27.26875Q677.9219 27.128124 677.0625 26.909374Q675.90625 26.6125 675.4531 26.409374Q675.0156 26.190624 674.78125 25.815624Q674.5469 25.440624 674.5469 24.971874Q674.5469 24.565624 674.7344 24.20625Q674.9219 23.846874 675.25 23.6125Q675.5 23.440624 675.9219 23.315624Q676.34375 23.190624 676.84375 23.190624Q677.5625 23.190624 678.1094 23.409374Q678.6719 23.6125 678.9375 23.971874Q679.2031 24.33125 679.2969 24.925L678.2656 25.065624Q678.2031 24.596874 677.8594 24.33125Q677.53125 24.05 676.90625 24.05Q676.1875 24.05 675.875 24.3Q675.5625 24.534374 675.5625 24.8625Q675.5625 25.065624 675.6875 25.221874Q675.8281 25.39375 676.09375 25.503124Q676.25 25.565624 677.03125 25.76875Q678.15625 26.08125 678.59375 26.26875Q679.03125 26.45625 679.28125 26.815624Q679.53125 27.175 679.53125 27.721874Q679.53125 28.253124 679.21875 28.721874Q678.9219 29.175 678.34375 29.440624Q677.7656 29.690624 677.03125 29.690624Q675.8125 29.690624 675.1719 29.190624Q674.5469 28.675 674.375 27.690624ZM681.40625 26.440624Q681.40625 24.70625 682.3594 23.878124Q683.15625 23.190624 684.3125 23.190624Q685.59375 23.190624 686.40625 24.034374Q687.2344 24.8625 687.2344 26.346874Q687.2344 27.55 686.875 28.2375Q686.5156 28.925 685.8125 29.315624Q685.125 29.690624 684.3125 29.690624Q683.0156 29.690624 682.2031 28.8625Q681.40625 28.01875 681.40625 26.440624ZM682.4844 26.440624Q682.4844 27.628124 683.0 28.221874Q683.53125 28.815624 684.3125 28.815624Q685.1094 28.815624 685.625 28.221874Q686.1406 27.628124 686.1406 26.409374Q686.1406 25.253124 685.6094 24.659374Q685.09375 24.065624 684.3125 24.065624Q683.53125 24.065624 683.0 24.659374Q682.4844 25.2375 682.4844 26.440624ZM688.7969 29.55L688.7969 23.33125L689.7344 23.33125L689.7344 24.20625Q690.4219 23.190624 691.71875 23.190624Q692.28125 23.190624 692.75 23.39375Q693.2344 23.596874 693.46875 23.925Q693.7031 24.253124 693.7969 24.690624Q693.84375 24.9875 693.84375 25.721874L693.84375 29.55L692.7969 29.55L692.7969 25.76875Q692.7969 25.1125 692.6719 24.8Q692.5469 24.4875 692.2344 24.3Q691.9219 24.096874 691.5 24.096874Q690.8281 24.096874 690.3281 24.534374Q689.84375 24.95625 689.84375 26.14375L689.84375 29.55L688.7969 29.55ZM698.7969 31.940624L698.7969 23.33125L699.75 23.33125L699.75 24.128124Q700.09375 23.659374 700.5156 23.425Q700.9531 23.190624 701.5625 23.190624Q702.3594 23.190624 702.96875 23.596874Q703.5781 24.003124 703.875 24.753124Q704.1875 25.503124 704.1875 26.39375Q704.1875 27.346874 703.84375 28.1125Q703.5156 28.878124 702.8594 29.284374Q702.2031 29.690624 701.4844 29.690624Q700.9531 29.690624 700.53125 29.471874Q700.1094 29.2375 699.84375 28.909374L699.84375 31.940624L698.7969 31.940624ZM699.75 26.471874Q699.75 27.675 700.2344 28.253124Q700.71875 28.815624 701.40625 28.815624Q702.1094 28.815624 702.6094 28.221874Q703.1094 27.628124 703.1094 26.378124Q703.1094 25.190624 702.625 24.6125Q702.1406 24.01875 701.4531 24.01875Q700.78125 24.01875 700.2656 24.64375Q699.75 25.26875 699.75 26.471874ZM709.8594 28.784374Q709.2656 29.284374 708.71875 29.4875Q708.1875 29.690624 707.5625 29.690624Q706.53125 29.690624 705.9844 29.190624Q705.4375 28.690624 705.4375 27.909374Q705.4375 27.45625 705.6406 27.08125Q705.84375 26.690624 706.1875 26.471874Q706.53125 26.2375 706.9531 26.128124Q707.25 26.034374 707.8906 25.95625Q709.15625 25.815624 709.7656 25.596874Q709.7656 25.378124 709.7656 25.33125Q709.7656 24.675 709.46875 24.409374Q709.0625 24.065624 708.2656 24.065624Q707.53125 24.065624 707.1719 24.33125Q706.8125 24.58125 706.6406 25.2375L705.6094 25.096874Q705.75 24.440624 706.0781 24.034374Q706.40625 23.628124 707.0156 23.409374Q707.625 23.190624 708.4219 23.190624Q709.21875 23.190624 709.71875 23.378124Q710.21875 23.565624 710.4531 23.846874Q710.6875 24.128124 710.78125 24.565624Q710.8281 24.83125 710.8281 25.534374L710.8281 26.940624Q710.8281 28.409374 710.8906 28.8Q710.96875 29.190624 711.1719 29.55L710.0625 29.55Q709.90625 29.221874 709.8594 28.784374ZM709.7656 26.425Q709.1875 26.659374 708.0469 26.83125Q707.3906 26.925 707.125 27.05Q706.8594 27.159374 706.7031 27.378124Q706.5625 27.596874 706.5625 27.878124Q706.5625 28.3 706.875 28.58125Q707.2031 28.8625 707.8125 28.8625Q708.4219 28.8625 708.8906 28.596874Q709.375 28.33125 709.59375 27.8625Q709.7656 27.503124 709.7656 26.815624L709.7656 26.425ZM715.09375 28.6125L715.25 29.534374Q714.7969 29.628124 714.4531 29.628124Q713.875 29.628124 713.5625 29.45625Q713.25 29.26875 713.1094 28.971874Q712.9844 28.675 712.9844 27.721874L712.9844 24.14375L712.21875 24.14375L712.21875 23.33125L712.9844 23.33125L712.9844 21.784374L714.03125 21.159374L714.03125 23.33125L715.09375 23.33125L715.09375 24.14375L714.03125 24.14375L714.03125 27.784374Q714.03125 28.2375 714.0781 28.3625Q714.1406 28.4875 714.2656 28.565624Q714.3906 28.64375 714.625 28.64375Q714.8125 28.64375 715.09375 28.6125ZM719.8594 27.26875L720.8906 27.409374Q720.71875 28.471874 720.0156 29.08125Q719.3125 29.690624 718.2969 29.690624Q717.0156 29.690624 716.2344 28.8625Q715.46875 28.01875 715.46875 26.45625Q715.46875 25.45625 715.7969 24.70625Q716.1406 23.940624 716.8125 23.565624Q717.5 23.190624 718.3125 23.190624Q719.3125 23.190624 719.9531 23.70625Q720.6094 24.20625 720.7969 25.159374L719.7656 25.315624Q719.625 24.690624 719.25 24.378124Q718.875 24.05 718.34375 24.05Q717.5469 24.05 717.0469 24.628124Q716.5469 25.190624 716.5469 26.425Q716.5469 27.690624 717.03125 28.253124Q717.5156 28.815624 718.28125 28.815624Q718.90625 28.815624 719.3125 28.440624Q719.7344 28.065624 719.8594 27.26875ZM721.7969 29.55L721.7969 20.95625L722.84375 20.95625L722.84375 24.034374Q723.5781 23.190624 724.7031 23.190624Q725.40625 23.190624 725.90625 23.471874Q726.4219 23.7375 726.6406 24.221874Q726.8594 24.690624 726.8594 25.6125L726.8594 29.55L725.8125 29.55L725.8125 25.6125Q725.8125 24.815624 725.46875 24.45625Q725.125 24.096874 724.5 24.096874Q724.03125 24.096874 723.6094 24.346874Q723.2031 24.58125 723.0156 25.003124Q722.84375 25.409374 722.84375 26.14375L722.84375 29.55L721.7969 29.55Z" fill-rule="nonzero"/></svg>